G75*
%MOIN*%
%OFA0B0*%
%FSLAX25Y25*%
%IPPOS*%
%LPD*%
%AMOC8*
5,1,8,0,0,1.08239X$1,22.5*
%
%ADD10C,0.00400*%
D10*
X0142636Y0023304D02*
X0145705Y0023304D01*
X0145705Y0018700D01*
X0142636Y0018700D01*
X0144171Y0021002D02*
X0145705Y0021002D01*
X0141102Y0018700D02*
X0141102Y0023304D01*
X0138800Y0023304D01*
X0138032Y0022537D01*
X0138032Y0021002D01*
X0138800Y0020235D01*
X0141102Y0020235D01*
X0139567Y0020235D02*
X0138032Y0018700D01*
X0131894Y0023304D02*
X0131894Y0018700D01*
X0129592Y0018700D01*
X0128824Y0019467D01*
X0128824Y0022537D01*
X0129592Y0023304D01*
X0131894Y0023304D01*
X0124988Y0018700D02*
X0126522Y0018700D01*
X0127290Y0019467D01*
X0127290Y0021002D01*
X0126522Y0021769D01*
X0124988Y0021769D01*
X0124220Y0021002D01*
X0124220Y0020235D01*
X0127290Y0020235D01*
X0122686Y0018700D02*
X0120384Y0018700D01*
X0119617Y0019467D01*
X0120384Y0020235D01*
X0121919Y0020235D01*
X0122686Y0021002D01*
X0121919Y0021769D01*
X0119617Y0021769D01*
X0118082Y0021769D02*
X0117315Y0021769D01*
X0117315Y0018700D01*
X0118082Y0018700D02*
X0116547Y0018700D01*
X0117315Y0023304D02*
X0117315Y0024071D01*
X0113478Y0017165D02*
X0112711Y0017165D01*
X0111943Y0017933D01*
X0111943Y0021769D01*
X0114245Y0021769D01*
X0115013Y0021002D01*
X0115013Y0019467D01*
X0114245Y0018700D01*
X0111943Y0018700D01*
X0110409Y0021769D02*
X0109641Y0021769D01*
X0109641Y0021002D01*
X0110409Y0021002D01*
X0110409Y0021769D01*
X0110409Y0019467D02*
X0109641Y0019467D01*
X0109641Y0018700D01*
X0110409Y0018700D01*
X0110409Y0019467D01*
X0100434Y0023304D02*
X0103503Y0023304D01*
X0103503Y0021002D01*
X0101968Y0021769D01*
X0101201Y0021769D01*
X0100434Y0021002D01*
X0100434Y0019467D01*
X0101201Y0018700D01*
X0102736Y0018700D01*
X0103503Y0019467D01*
X0098899Y0018700D02*
X0095830Y0023304D01*
X0094295Y0021769D02*
X0092760Y0023304D01*
X0092760Y0018700D01*
X0091226Y0018700D02*
X0094295Y0018700D01*
X0089691Y0022537D02*
X0088924Y0023304D01*
X0087389Y0023304D01*
X0086622Y0022537D01*
X0086622Y0021769D01*
X0087389Y0021002D01*
X0086622Y0020235D01*
X0086622Y0019467D01*
X0087389Y0018700D01*
X0088924Y0018700D01*
X0089691Y0019467D01*
X0089691Y0020235D01*
X0088924Y0021002D01*
X0089691Y0021769D01*
X0089691Y0022537D01*
X0088924Y0021002D02*
X0087389Y0021002D01*
X0084320Y0024071D02*
X0084320Y0022537D01*
X0085087Y0021769D01*
X0145705Y0011200D02*
X0145705Y0015804D01*
X0143404Y0015804D01*
X0142636Y0015037D01*
X0142636Y0014269D01*
X0143404Y0013502D01*
X0142636Y0012735D01*
X0142636Y0011967D01*
X0143404Y0011200D01*
X0145705Y0011200D01*
X0145705Y0013502D02*
X0143404Y0013502D01*
X0140334Y0014269D02*
X0138800Y0014269D01*
X0138032Y0013502D01*
X0138032Y0011200D01*
X0140334Y0011200D01*
X0141102Y0011967D01*
X0140334Y0012735D01*
X0138032Y0012735D01*
X0135730Y0015037D02*
X0135730Y0011967D01*
X0134963Y0011200D01*
X0134963Y0014269D02*
X0136498Y0014269D01*
X0132661Y0015037D02*
X0132661Y0011967D01*
X0131894Y0011200D01*
X0131894Y0014269D02*
X0133428Y0014269D01*
X0128057Y0011200D02*
X0129592Y0011200D01*
X0130359Y0011967D01*
X0130359Y0013502D01*
X0129592Y0014269D01*
X0128057Y0014269D01*
X0127290Y0013502D01*
X0127290Y0012735D01*
X0130359Y0012735D01*
X0125755Y0014269D02*
X0125755Y0011200D01*
X0125755Y0012735D02*
X0124220Y0014269D01*
X0123453Y0014269D01*
X0121919Y0014269D02*
X0121919Y0011967D01*
X0121151Y0011200D01*
X0118849Y0011200D01*
X0118849Y0014269D02*
X0118849Y0010433D01*
X0119617Y0009665D01*
X0120384Y0009665D01*
X0109641Y0015037D02*
X0110409Y0015804D01*
X0111943Y0015804D01*
X0112711Y0015037D01*
X0112711Y0011967D01*
X0111943Y0011200D01*
X0110409Y0011200D01*
X0109641Y0011967D01*
X0108107Y0011200D02*
X0108107Y0015804D01*
X0108107Y0013502D02*
X0107339Y0014269D01*
X0105805Y0014269D01*
X0105037Y0013502D01*
X0105037Y0011200D01*
X0102736Y0014269D02*
X0101201Y0014269D01*
X0100434Y0013502D01*
X0100434Y0011200D01*
X0102736Y0011200D01*
X0103503Y0011967D01*
X0102736Y0012735D01*
X0100434Y0012735D01*
X0098899Y0011200D02*
X0098899Y0014269D01*
X0098899Y0012735D02*
X0097364Y0014269D01*
X0096597Y0014269D01*
X0093528Y0009665D02*
X0092760Y0009665D01*
X0091993Y0010433D01*
X0091993Y0014269D01*
X0094295Y0014269D01*
X0095062Y0013502D01*
X0095062Y0011967D01*
X0094295Y0011200D01*
X0091993Y0011200D01*
X0088156Y0011200D02*
X0089691Y0011200D01*
X0090458Y0011967D01*
X0090458Y0013502D01*
X0089691Y0014269D01*
X0088156Y0014269D01*
X0087389Y0013502D01*
X0087389Y0012735D01*
X0090458Y0012735D01*
X0085854Y0014269D02*
X0085854Y0011200D01*
X0085854Y0012735D02*
X0084320Y0014269D01*
X0083552Y0014269D01*
X0077414Y0015804D02*
X0077414Y0012735D01*
X0075879Y0011200D01*
X0074345Y0012735D01*
X0074345Y0015804D01*
X0072810Y0014269D02*
X0071275Y0015804D01*
X0071275Y0011200D01*
X0069741Y0011200D02*
X0072810Y0011200D01*
X0068206Y0011200D02*
X0068206Y0011967D01*
X0067439Y0011967D01*
X0067439Y0011200D01*
X0068206Y0011200D01*
X0065904Y0014269D02*
X0064369Y0015804D01*
X0064369Y0011200D01*
X0062835Y0011200D02*
X0065904Y0011200D01*
M02*
