%
M48
M72
T01C0.0236
T02C0.0354
T03C0.0500
T04C0.1358
%
T01
X2600Y1750
X2650Y11750
X2650Y21750
X2650Y31700
X7100Y3100
X13200Y4300
X3450Y4850
X6750Y16200
X7000Y6250
X7250Y26250
X3100Y14800
X3300Y24850
X7350Y36250
X3250Y35000
T02
X5606Y31000
X6394Y31000
X5606Y11050
X6394Y11050
X5606Y21050
X6394Y21050
X5556Y40950
X6344Y40950
T03
X8000Y29350
X1807Y27421
X8000Y9350
X1807Y7421
X8000Y19350
X1807Y17421
X8000Y39350
X1807Y37421
T04
X12055Y27500
X3945Y27500
X12055Y7500
X3945Y7500
X12055Y17500
X3945Y17500
X12055Y37500
X3945Y37500
M30
