G75*
%MOIN*%
%OFA0B0*%
%FSLAX25Y25*%
%IPPOS*%
%LPD*%
%AMOC8*
5,1,8,0,0,1.08239X$1,22.5*
%
%ADD10R,0.05906X0.05118*%
%ADD11R,0.03543X0.02756*%
%ADD12C,0.00394*%
%ADD13C,0.00354*%
%ADD14R,0.03150X0.03150*%
%ADD15R,0.02756X0.03543*%
%ADD16R,0.08268X0.07874*%
%ADD17R,0.06299X0.07480*%
%ADD18R,0.01575X0.05315*%
%ADD19R,0.09843X0.08661*%
%ADD20R,0.01969X0.07874*%
%ADD21R,0.05118X0.05906*%
D10*
X0050500Y0050740D03*
X0050500Y0043260D03*
X0041000Y0050740D03*
X0041000Y0043260D03*
X0050000Y0253740D03*
X0050000Y0246260D03*
X0040000Y0253740D03*
X0040000Y0246260D03*
X0050500Y0153740D03*
X0050500Y0146260D03*
X0039500Y0153740D03*
X0039500Y0146260D03*
X0050000Y0353740D03*
X0050000Y0346260D03*
X0040000Y0353740D03*
X0040000Y0346260D03*
D11*
X0035000Y0017441D03*
X0035000Y0022559D03*
X0015000Y0022441D03*
X0015000Y0027559D03*
X0015000Y0042559D03*
X0015000Y0037441D03*
X0040000Y0017441D03*
X0040000Y0022559D03*
X0045000Y0017441D03*
X0045000Y0022559D03*
X0035000Y0217441D03*
X0035000Y0222559D03*
X0015000Y0222441D03*
X0015000Y0227559D03*
X0015000Y0242559D03*
X0015000Y0237441D03*
X0040000Y0217441D03*
X0040000Y0222559D03*
X0045000Y0217441D03*
X0045000Y0222559D03*
X0035000Y0117441D03*
X0035000Y0122559D03*
X0015000Y0122441D03*
X0015000Y0127559D03*
X0015000Y0142559D03*
X0015000Y0137441D03*
X0040000Y0117441D03*
X0040000Y0122559D03*
X0045000Y0117441D03*
X0045000Y0122559D03*
X0035000Y0317441D03*
X0035000Y0322559D03*
X0015000Y0322441D03*
X0015000Y0327559D03*
X0015000Y0342559D03*
X0015000Y0337441D03*
X0040000Y0317441D03*
X0040000Y0322559D03*
X0045000Y0317441D03*
X0045000Y0322559D03*
D12*
X0027047Y0037954D02*
X0025079Y0037954D01*
X0025079Y0038346D01*
X0027047Y0038346D01*
X0027047Y0037954D01*
X0027047Y0036379D02*
X0025079Y0036379D01*
X0025079Y0036771D01*
X0027047Y0036771D01*
X0027047Y0036379D01*
X0027047Y0034804D02*
X0025079Y0034804D01*
X0025079Y0035196D01*
X0027047Y0035196D01*
X0027047Y0034804D01*
X0027047Y0033229D02*
X0025079Y0033229D01*
X0025079Y0033621D01*
X0027047Y0033621D01*
X0027047Y0033229D01*
X0027047Y0031654D02*
X0025079Y0031654D01*
X0025079Y0032046D01*
X0027047Y0032046D01*
X0027047Y0031654D01*
X0034921Y0031654D02*
X0032953Y0031654D01*
X0032953Y0032046D01*
X0034921Y0032046D01*
X0034921Y0031654D01*
X0034921Y0033229D02*
X0032953Y0033229D01*
X0032953Y0033621D01*
X0034921Y0033621D01*
X0034921Y0033229D01*
X0034921Y0034804D02*
X0032953Y0034804D01*
X0032953Y0035196D01*
X0034921Y0035196D01*
X0034921Y0034804D01*
X0034921Y0036379D02*
X0032953Y0036379D01*
X0032953Y0036771D01*
X0034921Y0036771D01*
X0034921Y0036379D01*
X0034921Y0037954D02*
X0032953Y0037954D01*
X0032953Y0038346D01*
X0034921Y0038346D01*
X0034921Y0037954D01*
X0027047Y0237954D02*
X0025079Y0237954D01*
X0025079Y0238346D01*
X0027047Y0238346D01*
X0027047Y0237954D01*
X0027047Y0236379D02*
X0025079Y0236379D01*
X0025079Y0236771D01*
X0027047Y0236771D01*
X0027047Y0236379D01*
X0027047Y0234804D02*
X0025079Y0234804D01*
X0025079Y0235196D01*
X0027047Y0235196D01*
X0027047Y0234804D01*
X0027047Y0233229D02*
X0025079Y0233229D01*
X0025079Y0233621D01*
X0027047Y0233621D01*
X0027047Y0233229D01*
X0027047Y0231654D02*
X0025079Y0231654D01*
X0025079Y0232046D01*
X0027047Y0232046D01*
X0027047Y0231654D01*
X0034921Y0231654D02*
X0032953Y0231654D01*
X0032953Y0232046D01*
X0034921Y0232046D01*
X0034921Y0231654D01*
X0034921Y0233229D02*
X0032953Y0233229D01*
X0032953Y0233621D01*
X0034921Y0233621D01*
X0034921Y0233229D01*
X0034921Y0234804D02*
X0032953Y0234804D01*
X0032953Y0235196D01*
X0034921Y0235196D01*
X0034921Y0234804D01*
X0034921Y0236379D02*
X0032953Y0236379D01*
X0032953Y0236771D01*
X0034921Y0236771D01*
X0034921Y0236379D01*
X0034921Y0237954D02*
X0032953Y0237954D01*
X0032953Y0238346D01*
X0034921Y0238346D01*
X0034921Y0237954D01*
X0027047Y0137954D02*
X0025079Y0137954D01*
X0025079Y0138346D01*
X0027047Y0138346D01*
X0027047Y0137954D01*
X0027047Y0136379D02*
X0025079Y0136379D01*
X0025079Y0136771D01*
X0027047Y0136771D01*
X0027047Y0136379D01*
X0027047Y0134804D02*
X0025079Y0134804D01*
X0025079Y0135196D01*
X0027047Y0135196D01*
X0027047Y0134804D01*
X0027047Y0133229D02*
X0025079Y0133229D01*
X0025079Y0133621D01*
X0027047Y0133621D01*
X0027047Y0133229D01*
X0027047Y0131654D02*
X0025079Y0131654D01*
X0025079Y0132046D01*
X0027047Y0132046D01*
X0027047Y0131654D01*
X0034921Y0131654D02*
X0032953Y0131654D01*
X0032953Y0132046D01*
X0034921Y0132046D01*
X0034921Y0131654D01*
X0034921Y0133229D02*
X0032953Y0133229D01*
X0032953Y0133621D01*
X0034921Y0133621D01*
X0034921Y0133229D01*
X0034921Y0134804D02*
X0032953Y0134804D01*
X0032953Y0135196D01*
X0034921Y0135196D01*
X0034921Y0134804D01*
X0034921Y0136379D02*
X0032953Y0136379D01*
X0032953Y0136771D01*
X0034921Y0136771D01*
X0034921Y0136379D01*
X0034921Y0137954D02*
X0032953Y0137954D01*
X0032953Y0138346D01*
X0034921Y0138346D01*
X0034921Y0137954D01*
X0027047Y0337954D02*
X0025079Y0337954D01*
X0025079Y0338346D01*
X0027047Y0338346D01*
X0027047Y0337954D01*
X0027047Y0336379D02*
X0025079Y0336379D01*
X0025079Y0336771D01*
X0027047Y0336771D01*
X0027047Y0336379D01*
X0027047Y0334804D02*
X0025079Y0334804D01*
X0025079Y0335196D01*
X0027047Y0335196D01*
X0027047Y0334804D01*
X0027047Y0333229D02*
X0025079Y0333229D01*
X0025079Y0333621D01*
X0027047Y0333621D01*
X0027047Y0333229D01*
X0027047Y0331654D02*
X0025079Y0331654D01*
X0025079Y0332046D01*
X0027047Y0332046D01*
X0027047Y0331654D01*
X0034921Y0331654D02*
X0032953Y0331654D01*
X0032953Y0332046D01*
X0034921Y0332046D01*
X0034921Y0331654D01*
X0034921Y0333229D02*
X0032953Y0333229D01*
X0032953Y0333621D01*
X0034921Y0333621D01*
X0034921Y0333229D01*
X0034921Y0334804D02*
X0032953Y0334804D01*
X0032953Y0335196D01*
X0034921Y0335196D01*
X0034921Y0334804D01*
X0034921Y0336379D02*
X0032953Y0336379D01*
X0032953Y0336771D01*
X0034921Y0336771D01*
X0034921Y0336379D01*
X0034921Y0337954D02*
X0032953Y0337954D01*
X0032953Y0338346D01*
X0034921Y0338346D01*
X0034921Y0337954D01*
D13*
X0031594Y0038169D02*
X0031594Y0031831D01*
X0028406Y0031831D01*
X0028406Y0038169D01*
X0031594Y0038169D01*
X0031594Y0032184D02*
X0028406Y0032184D01*
X0028406Y0032537D02*
X0031594Y0032537D01*
X0031594Y0032890D02*
X0028406Y0032890D01*
X0028406Y0033243D02*
X0031594Y0033243D01*
X0031594Y0033596D02*
X0028406Y0033596D01*
X0028406Y0033949D02*
X0031594Y0033949D01*
X0031594Y0034302D02*
X0028406Y0034302D01*
X0028406Y0034655D02*
X0031594Y0034655D01*
X0031594Y0035008D02*
X0028406Y0035008D01*
X0028406Y0035361D02*
X0031594Y0035361D01*
X0031594Y0035714D02*
X0028406Y0035714D01*
X0028406Y0036067D02*
X0031594Y0036067D01*
X0031594Y0036420D02*
X0028406Y0036420D01*
X0028406Y0036773D02*
X0031594Y0036773D01*
X0031594Y0037126D02*
X0028406Y0037126D01*
X0028406Y0037479D02*
X0031594Y0037479D01*
X0031594Y0037832D02*
X0028406Y0037832D01*
X0031594Y0238169D02*
X0031594Y0231831D01*
X0028406Y0231831D01*
X0028406Y0238169D01*
X0031594Y0238169D01*
X0031594Y0232184D02*
X0028406Y0232184D01*
X0028406Y0232537D02*
X0031594Y0232537D01*
X0031594Y0232890D02*
X0028406Y0232890D01*
X0028406Y0233243D02*
X0031594Y0233243D01*
X0031594Y0233596D02*
X0028406Y0233596D01*
X0028406Y0233949D02*
X0031594Y0233949D01*
X0031594Y0234302D02*
X0028406Y0234302D01*
X0028406Y0234655D02*
X0031594Y0234655D01*
X0031594Y0235008D02*
X0028406Y0235008D01*
X0028406Y0235361D02*
X0031594Y0235361D01*
X0031594Y0235714D02*
X0028406Y0235714D01*
X0028406Y0236067D02*
X0031594Y0236067D01*
X0031594Y0236420D02*
X0028406Y0236420D01*
X0028406Y0236773D02*
X0031594Y0236773D01*
X0031594Y0237126D02*
X0028406Y0237126D01*
X0028406Y0237479D02*
X0031594Y0237479D01*
X0031594Y0237832D02*
X0028406Y0237832D01*
X0031594Y0138169D02*
X0031594Y0131831D01*
X0028406Y0131831D01*
X0028406Y0138169D01*
X0031594Y0138169D01*
X0031594Y0132184D02*
X0028406Y0132184D01*
X0028406Y0132537D02*
X0031594Y0132537D01*
X0031594Y0132890D02*
X0028406Y0132890D01*
X0028406Y0133243D02*
X0031594Y0133243D01*
X0031594Y0133596D02*
X0028406Y0133596D01*
X0028406Y0133949D02*
X0031594Y0133949D01*
X0031594Y0134302D02*
X0028406Y0134302D01*
X0028406Y0134655D02*
X0031594Y0134655D01*
X0031594Y0135008D02*
X0028406Y0135008D01*
X0028406Y0135361D02*
X0031594Y0135361D01*
X0031594Y0135714D02*
X0028406Y0135714D01*
X0028406Y0136067D02*
X0031594Y0136067D01*
X0031594Y0136420D02*
X0028406Y0136420D01*
X0028406Y0136773D02*
X0031594Y0136773D01*
X0031594Y0137126D02*
X0028406Y0137126D01*
X0028406Y0137479D02*
X0031594Y0137479D01*
X0031594Y0137832D02*
X0028406Y0137832D01*
X0031594Y0338169D02*
X0031594Y0331831D01*
X0028406Y0331831D01*
X0028406Y0338169D01*
X0031594Y0338169D01*
X0031594Y0332184D02*
X0028406Y0332184D01*
X0028406Y0332537D02*
X0031594Y0332537D01*
X0031594Y0332890D02*
X0028406Y0332890D01*
X0028406Y0333243D02*
X0031594Y0333243D01*
X0031594Y0333596D02*
X0028406Y0333596D01*
X0028406Y0333949D02*
X0031594Y0333949D01*
X0031594Y0334302D02*
X0028406Y0334302D01*
X0028406Y0334655D02*
X0031594Y0334655D01*
X0031594Y0335008D02*
X0028406Y0335008D01*
X0028406Y0335361D02*
X0031594Y0335361D01*
X0031594Y0335714D02*
X0028406Y0335714D01*
X0028406Y0336067D02*
X0031594Y0336067D01*
X0031594Y0336420D02*
X0028406Y0336420D01*
X0028406Y0336773D02*
X0031594Y0336773D01*
X0031594Y0337126D02*
X0028406Y0337126D01*
X0028406Y0337479D02*
X0031594Y0337479D01*
X0031594Y0337832D02*
X0028406Y0337832D01*
D14*
X0015000Y0048297D03*
X0015000Y0054203D03*
X0015000Y0016703D03*
X0015000Y0010797D03*
X0015000Y0248297D03*
X0015000Y0254203D03*
X0015000Y0216703D03*
X0015000Y0210797D03*
X0015000Y0148297D03*
X0015000Y0154203D03*
X0015000Y0116703D03*
X0015000Y0110797D03*
X0015000Y0348297D03*
X0015000Y0354203D03*
X0015000Y0316703D03*
X0015000Y0310797D03*
D15*
X0064941Y0051000D03*
X0070059Y0051000D03*
X0070059Y0056000D03*
X0064941Y0056000D03*
X0067441Y0248500D03*
X0072559Y0248500D03*
X0072559Y0255000D03*
X0067441Y0255000D03*
X0062441Y0151000D03*
X0067559Y0151000D03*
X0067559Y0155500D03*
X0062441Y0155500D03*
X0068441Y0350000D03*
X0073559Y0350000D03*
X0073559Y0355500D03*
X0068441Y0355500D03*
D16*
X0060295Y0020752D03*
X0084705Y0020752D03*
D17*
X0056358Y0011500D03*
X0088642Y0011500D03*
D18*
X0067382Y0022031D03*
X0069941Y0022031D03*
X0072500Y0022031D03*
X0075059Y0022031D03*
X0077618Y0022031D03*
D19*
X0103965Y0033374D03*
X0137035Y0033374D03*
X0103965Y0012508D03*
X0137035Y0012508D03*
D20*
X0114201Y0034358D03*
X0117350Y0034358D03*
X0120500Y0034358D03*
X0123650Y0034358D03*
X0126799Y0034358D03*
D21*
X0085240Y0037000D03*
X0077760Y0037000D03*
M02*
