G75*
%MOIN*%
%OFA0B0*%
%FSLAX25Y25*%
%IPPOS*%
%LPD*%
%AMOC8*
5,1,8,0,0,1.08239X$1,22.5*
%
%ADD10C,0.00400*%
%ADD11C,0.00200*%
%ADD12C,0.00500*%
%ADD13R,0.00591X0.01181*%
%ADD14R,0.01181X0.01181*%
%ADD15C,0.00800*%
%ADD16C,0.00100*%
D10*
X0021269Y0013304D02*
X0021269Y0008700D01*
X0018967Y0008700D01*
X0018200Y0009467D01*
X0018200Y0011002D01*
X0018967Y0011769D01*
X0021269Y0011769D01*
X0023571Y0008700D02*
X0025106Y0008700D01*
X0025873Y0009467D01*
X0025873Y0011002D01*
X0025106Y0011769D01*
X0023571Y0011769D01*
X0022804Y0011002D01*
X0022804Y0009467D01*
X0023571Y0008700D01*
X0027408Y0008700D02*
X0027408Y0011769D01*
X0029710Y0011769D01*
X0030477Y0011002D01*
X0030477Y0008700D01*
X0034314Y0008700D02*
X0032779Y0008700D01*
X0032012Y0009467D01*
X0032012Y0011002D01*
X0032779Y0011769D01*
X0034314Y0011769D01*
X0035081Y0011002D01*
X0035081Y0010235D01*
X0032012Y0010235D01*
X0036616Y0007933D02*
X0039685Y0007933D01*
X0041220Y0011769D02*
X0042754Y0013304D01*
X0042754Y0008700D01*
X0041220Y0008700D02*
X0044289Y0008700D01*
X0021769Y0113804D02*
X0021769Y0109200D01*
X0019467Y0109200D01*
X0018700Y0109967D01*
X0018700Y0111502D01*
X0019467Y0112269D01*
X0021769Y0112269D01*
X0024071Y0109200D02*
X0025606Y0109200D01*
X0026373Y0109967D01*
X0026373Y0111502D01*
X0025606Y0112269D01*
X0024071Y0112269D01*
X0023304Y0111502D01*
X0023304Y0109967D01*
X0024071Y0109200D01*
X0027908Y0109200D02*
X0027908Y0112269D01*
X0030210Y0112269D01*
X0030977Y0111502D01*
X0030977Y0109200D01*
X0034814Y0109200D02*
X0033279Y0109200D01*
X0032512Y0109967D01*
X0032512Y0111502D01*
X0033279Y0112269D01*
X0034814Y0112269D01*
X0035581Y0111502D01*
X0035581Y0110735D01*
X0032512Y0110735D01*
X0037116Y0108433D02*
X0040185Y0108433D01*
X0044789Y0109200D02*
X0041720Y0109200D01*
X0044789Y0112269D01*
X0044789Y0113037D01*
X0044022Y0113804D01*
X0042487Y0113804D01*
X0041720Y0113037D01*
X0022269Y0211804D02*
X0022269Y0207200D01*
X0019967Y0207200D01*
X0019200Y0207967D01*
X0019200Y0209502D01*
X0019967Y0210269D01*
X0022269Y0210269D01*
X0024571Y0207200D02*
X0026106Y0207200D01*
X0026873Y0207967D01*
X0026873Y0209502D01*
X0026106Y0210269D01*
X0024571Y0210269D01*
X0023804Y0209502D01*
X0023804Y0207967D01*
X0024571Y0207200D01*
X0028408Y0207200D02*
X0028408Y0210269D01*
X0030710Y0210269D01*
X0031477Y0209502D01*
X0031477Y0207200D01*
X0035314Y0207200D02*
X0033779Y0207200D01*
X0033012Y0207967D01*
X0033012Y0209502D01*
X0033779Y0210269D01*
X0035314Y0210269D01*
X0036081Y0209502D01*
X0036081Y0208735D01*
X0033012Y0208735D01*
X0037616Y0206433D02*
X0040685Y0206433D01*
X0042220Y0211037D02*
X0042987Y0211804D01*
X0044522Y0211804D01*
X0045289Y0211037D01*
X0045289Y0210269D01*
X0044522Y0209502D01*
X0043754Y0209502D01*
X0044522Y0209502D02*
X0045289Y0208735D01*
X0045289Y0207967D01*
X0044522Y0207200D01*
X0042987Y0207200D01*
X0042220Y0207967D01*
X0022269Y0312804D02*
X0022269Y0308200D01*
X0019967Y0308200D01*
X0019200Y0308967D01*
X0019200Y0310502D01*
X0019967Y0311269D01*
X0022269Y0311269D01*
X0024571Y0308200D02*
X0026106Y0308200D01*
X0026873Y0308967D01*
X0026873Y0310502D01*
X0026106Y0311269D01*
X0024571Y0311269D01*
X0023804Y0310502D01*
X0023804Y0308967D01*
X0024571Y0308200D01*
X0028408Y0308200D02*
X0028408Y0311269D01*
X0030710Y0311269D01*
X0031477Y0310502D01*
X0031477Y0308200D01*
X0035314Y0308200D02*
X0033779Y0308200D01*
X0033012Y0308967D01*
X0033012Y0310502D01*
X0033779Y0311269D01*
X0035314Y0311269D01*
X0036081Y0310502D01*
X0036081Y0309735D01*
X0033012Y0309735D01*
X0037616Y0307433D02*
X0040685Y0307433D01*
X0044522Y0308200D02*
X0044522Y0312804D01*
X0042220Y0310502D01*
X0045289Y0310502D01*
X0059269Y0046037D02*
X0058502Y0046804D01*
X0056967Y0046804D01*
X0056200Y0046037D01*
X0056200Y0042967D01*
X0056967Y0042200D01*
X0058502Y0042200D01*
X0059269Y0042967D01*
X0063873Y0042200D02*
X0060804Y0042200D01*
X0063873Y0045269D01*
X0063873Y0046037D01*
X0063106Y0046804D01*
X0061571Y0046804D01*
X0060804Y0046037D01*
X0028269Y0025037D02*
X0027502Y0025804D01*
X0025967Y0025804D01*
X0025200Y0025037D01*
X0025200Y0021967D01*
X0025967Y0021200D01*
X0027502Y0021200D01*
X0028269Y0021967D01*
X0029804Y0025037D02*
X0030571Y0025804D01*
X0032106Y0025804D01*
X0032873Y0025037D01*
X0032873Y0024269D01*
X0032106Y0023502D01*
X0031339Y0023502D01*
X0032106Y0023502D02*
X0032873Y0022735D01*
X0032873Y0021967D01*
X0032106Y0021200D01*
X0030571Y0021200D01*
X0029804Y0021967D01*
X0009800Y0022700D02*
X0005196Y0022700D01*
X0005196Y0025002D01*
X0005963Y0025769D01*
X0007498Y0025769D01*
X0008265Y0025002D01*
X0008265Y0022700D01*
X0008265Y0024235D02*
X0009800Y0025769D01*
X0009800Y0029606D02*
X0005196Y0029606D01*
X0007498Y0027304D01*
X0007498Y0030373D01*
X0010300Y0037200D02*
X0005696Y0037200D01*
X0005696Y0039502D01*
X0006463Y0040269D01*
X0007998Y0040269D01*
X0008765Y0039502D01*
X0008765Y0037200D01*
X0008765Y0038735D02*
X0010300Y0040269D01*
X0006463Y0041804D02*
X0005696Y0042571D01*
X0005696Y0044106D01*
X0006463Y0044873D01*
X0007231Y0044873D01*
X0007998Y0044106D01*
X0007998Y0043339D01*
X0007998Y0044106D02*
X0008765Y0044873D01*
X0009533Y0044873D01*
X0010300Y0044106D01*
X0010300Y0042571D01*
X0009533Y0041804D01*
X0073700Y0046700D02*
X0073700Y0051304D01*
X0076002Y0051304D01*
X0076769Y0050537D01*
X0076769Y0049002D01*
X0076002Y0048235D01*
X0073700Y0048235D01*
X0075235Y0048235D02*
X0076769Y0046700D01*
X0081373Y0051304D02*
X0078304Y0051304D01*
X0078304Y0049002D01*
X0079839Y0049769D01*
X0080606Y0049769D01*
X0081373Y0049002D01*
X0081373Y0047467D01*
X0080606Y0046700D01*
X0079071Y0046700D01*
X0078304Y0047467D01*
X0036700Y0027200D02*
X0036700Y0031804D01*
X0039002Y0031804D01*
X0039769Y0031037D01*
X0039769Y0029502D01*
X0039002Y0028735D01*
X0036700Y0028735D01*
X0038235Y0028735D02*
X0039769Y0027200D01*
X0041304Y0030269D02*
X0042839Y0031804D01*
X0042839Y0027200D01*
X0044373Y0027200D02*
X0041304Y0027200D01*
X0047700Y0021200D02*
X0047700Y0025804D01*
X0050002Y0025804D01*
X0050769Y0025037D01*
X0050769Y0023502D01*
X0050002Y0022735D01*
X0047700Y0022735D01*
X0049235Y0022735D02*
X0050769Y0021200D01*
X0055373Y0021200D02*
X0052304Y0021200D01*
X0055373Y0024269D01*
X0055373Y0025037D01*
X0054606Y0025804D01*
X0053071Y0025804D01*
X0052304Y0025037D01*
X0073700Y0053200D02*
X0073700Y0057804D01*
X0076002Y0057804D01*
X0076769Y0057037D01*
X0076769Y0055502D01*
X0076002Y0054735D01*
X0073700Y0054735D01*
X0075235Y0054735D02*
X0076769Y0053200D01*
X0081373Y0057804D02*
X0079839Y0057037D01*
X0078304Y0055502D01*
X0078304Y0053967D01*
X0079071Y0053200D01*
X0080606Y0053200D01*
X0081373Y0053967D01*
X0081373Y0054735D01*
X0080606Y0055502D01*
X0078304Y0055502D01*
X0042269Y0037537D02*
X0041502Y0038304D01*
X0039967Y0038304D01*
X0039200Y0037537D01*
X0039200Y0034467D01*
X0039967Y0033700D01*
X0041502Y0033700D01*
X0042269Y0034467D01*
X0043804Y0036769D02*
X0045339Y0038304D01*
X0045339Y0033700D01*
X0046873Y0033700D02*
X0043804Y0033700D01*
X0059269Y0245537D02*
X0058502Y0246304D01*
X0056967Y0246304D01*
X0056200Y0245537D01*
X0056200Y0242467D01*
X0056967Y0241700D01*
X0058502Y0241700D01*
X0059269Y0242467D01*
X0063873Y0246304D02*
X0060804Y0246304D01*
X0060804Y0244002D01*
X0062339Y0244769D01*
X0063106Y0244769D01*
X0063873Y0244002D01*
X0063873Y0242467D01*
X0063106Y0241700D01*
X0061571Y0241700D01*
X0060804Y0242467D01*
X0027769Y0226037D02*
X0027002Y0226804D01*
X0025467Y0226804D01*
X0024700Y0226037D01*
X0024700Y0222967D01*
X0025467Y0222200D01*
X0027002Y0222200D01*
X0027769Y0222967D01*
X0031606Y0222200D02*
X0031606Y0226804D01*
X0029304Y0224502D01*
X0032373Y0224502D01*
X0010800Y0220700D02*
X0006196Y0220700D01*
X0006196Y0223002D01*
X0006963Y0223769D01*
X0008498Y0223769D01*
X0009265Y0223002D01*
X0009265Y0220700D01*
X0009265Y0222235D02*
X0010800Y0223769D01*
X0007731Y0225304D02*
X0006196Y0226839D01*
X0010800Y0226839D01*
X0010800Y0228373D02*
X0010800Y0225304D01*
X0010033Y0229908D02*
X0006963Y0229908D01*
X0006196Y0230675D01*
X0006196Y0232210D01*
X0006963Y0232977D01*
X0010033Y0232977D01*
X0010800Y0232210D01*
X0010800Y0230675D01*
X0010033Y0229908D01*
X0006963Y0232977D01*
X0010300Y0237200D02*
X0005696Y0237200D01*
X0005696Y0239502D01*
X0006463Y0240269D01*
X0007998Y0240269D01*
X0008765Y0239502D01*
X0008765Y0237200D01*
X0008765Y0238735D02*
X0010300Y0240269D01*
X0009533Y0241804D02*
X0010300Y0242571D01*
X0010300Y0244106D01*
X0009533Y0244873D01*
X0006463Y0244873D01*
X0005696Y0244106D01*
X0005696Y0242571D01*
X0006463Y0241804D01*
X0007231Y0241804D01*
X0007998Y0242571D01*
X0007998Y0244873D01*
X0077200Y0246200D02*
X0077200Y0250804D01*
X0079502Y0250804D01*
X0080269Y0250037D01*
X0080269Y0248502D01*
X0079502Y0247735D01*
X0077200Y0247735D01*
X0078735Y0247735D02*
X0080269Y0246200D01*
X0081804Y0249269D02*
X0083339Y0250804D01*
X0083339Y0246200D01*
X0084873Y0246200D02*
X0081804Y0246200D01*
X0089477Y0246200D02*
X0086408Y0246200D01*
X0089477Y0249269D01*
X0089477Y0250037D01*
X0088710Y0250804D01*
X0087175Y0250804D01*
X0086408Y0250037D01*
X0037700Y0227700D02*
X0037700Y0232304D01*
X0040002Y0232304D01*
X0040769Y0231537D01*
X0040769Y0230002D01*
X0040002Y0229235D01*
X0037700Y0229235D01*
X0039235Y0229235D02*
X0040769Y0227700D01*
X0042304Y0231537D02*
X0043071Y0232304D01*
X0044606Y0232304D01*
X0045373Y0231537D01*
X0045373Y0230769D01*
X0044606Y0230002D01*
X0045373Y0229235D01*
X0045373Y0228467D01*
X0044606Y0227700D01*
X0043071Y0227700D01*
X0042304Y0228467D01*
X0042304Y0229235D01*
X0043071Y0230002D01*
X0042304Y0230769D01*
X0042304Y0231537D01*
X0043071Y0230002D02*
X0044606Y0230002D01*
X0047700Y0222700D02*
X0047700Y0227304D01*
X0050002Y0227304D01*
X0050769Y0226537D01*
X0050769Y0225002D01*
X0050002Y0224235D01*
X0047700Y0224235D01*
X0049235Y0224235D02*
X0050769Y0222700D01*
X0052304Y0227304D02*
X0055373Y0227304D01*
X0055373Y0226537D01*
X0052304Y0223467D01*
X0052304Y0222700D01*
X0077700Y0253200D02*
X0077700Y0257804D01*
X0080002Y0257804D01*
X0080769Y0257037D01*
X0080769Y0255502D01*
X0080002Y0254735D01*
X0077700Y0254735D01*
X0079235Y0254735D02*
X0080769Y0253200D01*
X0082304Y0256269D02*
X0083839Y0257804D01*
X0083839Y0253200D01*
X0085373Y0253200D02*
X0082304Y0253200D01*
X0086908Y0256269D02*
X0088442Y0257804D01*
X0088442Y0253200D01*
X0086908Y0253200D02*
X0089977Y0253200D01*
X0040269Y0240537D02*
X0039502Y0241304D01*
X0037967Y0241304D01*
X0037200Y0240537D01*
X0037200Y0237467D01*
X0037967Y0236700D01*
X0039502Y0236700D01*
X0040269Y0237467D01*
X0044873Y0241304D02*
X0043339Y0240537D01*
X0041804Y0239002D01*
X0041804Y0237467D01*
X0042571Y0236700D01*
X0044106Y0236700D01*
X0044873Y0237467D01*
X0044873Y0238235D01*
X0044106Y0239002D01*
X0041804Y0239002D01*
X0057769Y0146537D02*
X0057002Y0147304D01*
X0055467Y0147304D01*
X0054700Y0146537D01*
X0054700Y0143467D01*
X0055467Y0142700D01*
X0057002Y0142700D01*
X0057769Y0143467D01*
X0059304Y0146537D02*
X0060071Y0147304D01*
X0061606Y0147304D01*
X0062373Y0146537D01*
X0062373Y0145769D01*
X0061606Y0145002D01*
X0062373Y0144235D01*
X0062373Y0143467D01*
X0061606Y0142700D01*
X0060071Y0142700D01*
X0059304Y0143467D01*
X0059304Y0144235D01*
X0060071Y0145002D01*
X0059304Y0145769D01*
X0059304Y0146537D01*
X0060071Y0145002D02*
X0061606Y0145002D01*
X0028269Y0125537D02*
X0027502Y0126304D01*
X0025967Y0126304D01*
X0025200Y0125537D01*
X0025200Y0122467D01*
X0025967Y0121700D01*
X0027502Y0121700D01*
X0028269Y0122467D01*
X0029804Y0126304D02*
X0032873Y0126304D01*
X0032873Y0125537D01*
X0029804Y0122467D01*
X0029804Y0121700D01*
X0009800Y0119700D02*
X0005196Y0119700D01*
X0005196Y0122002D01*
X0005963Y0122769D01*
X0007498Y0122769D01*
X0008265Y0122002D01*
X0008265Y0119700D01*
X0008265Y0121235D02*
X0009800Y0122769D01*
X0006731Y0124304D02*
X0005196Y0125839D01*
X0009800Y0125839D01*
X0009800Y0127373D02*
X0009800Y0124304D01*
X0005196Y0131977D02*
X0005963Y0130442D01*
X0007498Y0128908D01*
X0009033Y0128908D01*
X0009800Y0129675D01*
X0009800Y0131210D01*
X0009033Y0131977D01*
X0008265Y0131977D01*
X0007498Y0131210D01*
X0007498Y0128908D01*
X0009800Y0135200D02*
X0005196Y0135200D01*
X0005196Y0137502D01*
X0005963Y0138269D01*
X0007498Y0138269D01*
X0008265Y0137502D01*
X0008265Y0135200D01*
X0008265Y0136735D02*
X0009800Y0138269D01*
X0006731Y0139804D02*
X0005196Y0141339D01*
X0009800Y0141339D01*
X0009800Y0142873D02*
X0009800Y0139804D01*
X0005196Y0147477D02*
X0005196Y0144408D01*
X0007498Y0144408D01*
X0006731Y0145942D01*
X0006731Y0146710D01*
X0007498Y0147477D01*
X0009033Y0147477D01*
X0009800Y0146710D01*
X0009800Y0145175D01*
X0009033Y0144408D01*
X0072200Y0146700D02*
X0072200Y0151304D01*
X0074502Y0151304D01*
X0075269Y0150537D01*
X0075269Y0149002D01*
X0074502Y0148235D01*
X0072200Y0148235D01*
X0073735Y0148235D02*
X0075269Y0146700D01*
X0076804Y0149769D02*
X0078339Y0151304D01*
X0078339Y0146700D01*
X0079873Y0146700D02*
X0076804Y0146700D01*
X0081408Y0150537D02*
X0082175Y0151304D01*
X0083710Y0151304D01*
X0084477Y0150537D01*
X0084477Y0149769D01*
X0083710Y0149002D01*
X0084477Y0148235D01*
X0084477Y0147467D01*
X0083710Y0146700D01*
X0082175Y0146700D01*
X0081408Y0147467D01*
X0081408Y0148235D01*
X0082175Y0149002D01*
X0081408Y0149769D01*
X0081408Y0150537D01*
X0082175Y0149002D02*
X0083710Y0149002D01*
X0039200Y0127200D02*
X0039200Y0131804D01*
X0041502Y0131804D01*
X0042269Y0131037D01*
X0042269Y0129502D01*
X0041502Y0128735D01*
X0039200Y0128735D01*
X0040735Y0128735D02*
X0042269Y0127200D01*
X0043804Y0130269D02*
X0045339Y0131804D01*
X0045339Y0127200D01*
X0046873Y0127200D02*
X0043804Y0127200D01*
X0050710Y0127200D02*
X0050710Y0131804D01*
X0048408Y0129502D01*
X0051477Y0129502D01*
X0048200Y0120700D02*
X0048200Y0125304D01*
X0050502Y0125304D01*
X0051269Y0124537D01*
X0051269Y0123002D01*
X0050502Y0122235D01*
X0048200Y0122235D01*
X0049735Y0122235D02*
X0051269Y0120700D01*
X0052804Y0123769D02*
X0054339Y0125304D01*
X0054339Y0120700D01*
X0055873Y0120700D02*
X0052804Y0120700D01*
X0057408Y0124537D02*
X0058175Y0125304D01*
X0059710Y0125304D01*
X0060477Y0124537D01*
X0060477Y0123769D01*
X0059710Y0123002D01*
X0058942Y0123002D01*
X0059710Y0123002D02*
X0060477Y0122235D01*
X0060477Y0121467D01*
X0059710Y0120700D01*
X0058175Y0120700D01*
X0057408Y0121467D01*
X0072200Y0153200D02*
X0072200Y0157804D01*
X0074502Y0157804D01*
X0075269Y0157037D01*
X0075269Y0155502D01*
X0074502Y0154735D01*
X0072200Y0154735D01*
X0073735Y0154735D02*
X0075269Y0153200D01*
X0076804Y0156269D02*
X0078339Y0157804D01*
X0078339Y0153200D01*
X0079873Y0153200D02*
X0076804Y0153200D01*
X0081408Y0157804D02*
X0084477Y0157804D01*
X0084477Y0157037D01*
X0081408Y0153967D01*
X0081408Y0153200D01*
X0039769Y0140537D02*
X0039002Y0141304D01*
X0037467Y0141304D01*
X0036700Y0140537D01*
X0036700Y0137467D01*
X0037467Y0136700D01*
X0039002Y0136700D01*
X0039769Y0137467D01*
X0041304Y0137467D02*
X0042071Y0136700D01*
X0043606Y0136700D01*
X0044373Y0137467D01*
X0044373Y0140537D01*
X0043606Y0141304D01*
X0042071Y0141304D01*
X0041304Y0140537D01*
X0041304Y0139769D01*
X0042071Y0139002D01*
X0044373Y0139002D01*
X0059769Y0344037D02*
X0059002Y0344804D01*
X0057467Y0344804D01*
X0056700Y0344037D01*
X0056700Y0340967D01*
X0057467Y0340200D01*
X0059002Y0340200D01*
X0059769Y0340967D01*
X0061304Y0343269D02*
X0062839Y0344804D01*
X0062839Y0340200D01*
X0064373Y0340200D02*
X0061304Y0340200D01*
X0065908Y0343269D02*
X0067442Y0344804D01*
X0067442Y0340200D01*
X0065908Y0340200D02*
X0068977Y0340200D01*
X0024269Y0324037D02*
X0023502Y0324804D01*
X0021967Y0324804D01*
X0021200Y0324037D01*
X0021200Y0320967D01*
X0021967Y0320200D01*
X0023502Y0320200D01*
X0024269Y0320967D01*
X0025804Y0323269D02*
X0027339Y0324804D01*
X0027339Y0320200D01*
X0028873Y0320200D02*
X0025804Y0320200D01*
X0030408Y0320967D02*
X0030408Y0324037D01*
X0031175Y0324804D01*
X0032710Y0324804D01*
X0033477Y0324037D01*
X0033477Y0320967D01*
X0032710Y0320200D01*
X0031175Y0320200D01*
X0030408Y0320967D01*
X0033477Y0324037D01*
X0010300Y0321200D02*
X0005696Y0321200D01*
X0005696Y0323502D01*
X0006463Y0324269D01*
X0007998Y0324269D01*
X0008765Y0323502D01*
X0008765Y0321200D01*
X0008765Y0322735D02*
X0010300Y0324269D01*
X0010300Y0328873D02*
X0010300Y0325804D01*
X0007231Y0328873D01*
X0006463Y0328873D01*
X0005696Y0328106D01*
X0005696Y0326571D01*
X0006463Y0325804D01*
X0010300Y0333477D02*
X0010300Y0330408D01*
X0007231Y0333477D01*
X0006463Y0333477D01*
X0005696Y0332710D01*
X0005696Y0331175D01*
X0006463Y0330408D01*
X0010300Y0336200D02*
X0005696Y0336200D01*
X0005696Y0338502D01*
X0006463Y0339269D01*
X0007998Y0339269D01*
X0008765Y0338502D01*
X0008765Y0336200D01*
X0008765Y0337735D02*
X0010300Y0339269D01*
X0010300Y0343873D02*
X0010300Y0340804D01*
X0007231Y0343873D01*
X0006463Y0343873D01*
X0005696Y0343106D01*
X0005696Y0341571D01*
X0006463Y0340804D01*
X0007231Y0345408D02*
X0005696Y0346942D01*
X0010300Y0346942D01*
X0010300Y0345408D02*
X0010300Y0348477D01*
X0078200Y0346200D02*
X0078200Y0350804D01*
X0080502Y0350804D01*
X0081269Y0350037D01*
X0081269Y0348502D01*
X0080502Y0347735D01*
X0078200Y0347735D01*
X0079735Y0347735D02*
X0081269Y0346200D01*
X0085873Y0346200D02*
X0082804Y0346200D01*
X0085873Y0349269D01*
X0085873Y0350037D01*
X0085106Y0350804D01*
X0083571Y0350804D01*
X0082804Y0350037D01*
X0089710Y0346200D02*
X0089710Y0350804D01*
X0087408Y0348502D01*
X0090477Y0348502D01*
X0038700Y0327200D02*
X0038700Y0331804D01*
X0041002Y0331804D01*
X0041769Y0331037D01*
X0041769Y0329502D01*
X0041002Y0328735D01*
X0038700Y0328735D01*
X0040235Y0328735D02*
X0041769Y0327200D01*
X0046373Y0327200D02*
X0043304Y0327200D01*
X0046373Y0330269D01*
X0046373Y0331037D01*
X0045606Y0331804D01*
X0044071Y0331804D01*
X0043304Y0331037D01*
X0047908Y0327967D02*
X0047908Y0331037D01*
X0048675Y0331804D01*
X0050210Y0331804D01*
X0050977Y0331037D01*
X0050977Y0327967D01*
X0050210Y0327200D01*
X0048675Y0327200D01*
X0047908Y0327967D01*
X0050977Y0331037D01*
X0047700Y0320200D02*
X0047700Y0324804D01*
X0050002Y0324804D01*
X0050769Y0324037D01*
X0050769Y0322502D01*
X0050002Y0321735D01*
X0047700Y0321735D01*
X0049235Y0321735D02*
X0050769Y0320200D01*
X0052304Y0323269D02*
X0053839Y0324804D01*
X0053839Y0320200D01*
X0055373Y0320200D02*
X0052304Y0320200D01*
X0056908Y0320967D02*
X0057675Y0320200D01*
X0059210Y0320200D01*
X0059977Y0320967D01*
X0059977Y0324037D01*
X0059210Y0324804D01*
X0057675Y0324804D01*
X0056908Y0324037D01*
X0056908Y0323269D01*
X0057675Y0322502D01*
X0059977Y0322502D01*
X0078200Y0352700D02*
X0078200Y0357304D01*
X0080502Y0357304D01*
X0081269Y0356537D01*
X0081269Y0355002D01*
X0080502Y0354235D01*
X0078200Y0354235D01*
X0079735Y0354235D02*
X0081269Y0352700D01*
X0085873Y0352700D02*
X0082804Y0352700D01*
X0085873Y0355769D01*
X0085873Y0356537D01*
X0085106Y0357304D01*
X0083571Y0357304D01*
X0082804Y0356537D01*
X0087408Y0356537D02*
X0088175Y0357304D01*
X0089710Y0357304D01*
X0090477Y0356537D01*
X0090477Y0355769D01*
X0089710Y0355002D01*
X0088942Y0355002D01*
X0089710Y0355002D02*
X0090477Y0354235D01*
X0090477Y0353467D01*
X0089710Y0352700D01*
X0088175Y0352700D01*
X0087408Y0353467D01*
X0039769Y0340037D02*
X0039002Y0340804D01*
X0037467Y0340804D01*
X0036700Y0340037D01*
X0036700Y0336967D01*
X0037467Y0336200D01*
X0039002Y0336200D01*
X0039769Y0336967D01*
X0041304Y0339269D02*
X0042839Y0340804D01*
X0042839Y0336200D01*
X0044373Y0336200D02*
X0041304Y0336200D01*
X0048977Y0336200D02*
X0045908Y0336200D01*
X0048977Y0339269D01*
X0048977Y0340037D01*
X0048210Y0340804D01*
X0046675Y0340804D01*
X0045908Y0340037D01*
X0071759Y0310467D02*
X0072526Y0309700D01*
X0073294Y0309700D01*
X0074061Y0310467D01*
X0074061Y0314304D01*
X0073294Y0314304D02*
X0074828Y0314304D01*
X0079432Y0313537D02*
X0078665Y0314304D01*
X0077130Y0314304D01*
X0076363Y0313537D01*
X0076363Y0312769D01*
X0077130Y0312002D01*
X0078665Y0312002D01*
X0079432Y0311235D01*
X0079432Y0310467D01*
X0078665Y0309700D01*
X0077130Y0309700D01*
X0076363Y0310467D01*
X0082502Y0309700D02*
X0082502Y0314304D01*
X0084036Y0314304D02*
X0080967Y0314304D01*
X0085571Y0313537D02*
X0086338Y0314304D01*
X0087873Y0314304D01*
X0088640Y0313537D01*
X0088640Y0312769D01*
X0087873Y0312002D01*
X0087105Y0312002D01*
X0087873Y0312002D02*
X0088640Y0311235D01*
X0088640Y0310467D01*
X0087873Y0309700D01*
X0086338Y0309700D01*
X0085571Y0310467D01*
X0071259Y0111467D02*
X0072026Y0110700D01*
X0072794Y0110700D01*
X0073561Y0111467D01*
X0073561Y0115304D01*
X0072794Y0115304D02*
X0074328Y0115304D01*
X0078932Y0114537D02*
X0078165Y0115304D01*
X0076630Y0115304D01*
X0075863Y0114537D01*
X0075863Y0113769D01*
X0076630Y0113002D01*
X0078165Y0113002D01*
X0078932Y0112235D01*
X0078932Y0111467D01*
X0078165Y0110700D01*
X0076630Y0110700D01*
X0075863Y0111467D01*
X0082002Y0110700D02*
X0082002Y0115304D01*
X0083536Y0115304D02*
X0080467Y0115304D01*
X0085071Y0113769D02*
X0086605Y0115304D01*
X0086605Y0110700D01*
X0085071Y0110700D02*
X0088140Y0110700D01*
X0070259Y0211467D02*
X0071026Y0210700D01*
X0071794Y0210700D01*
X0072561Y0211467D01*
X0072561Y0215304D01*
X0071794Y0215304D02*
X0073328Y0215304D01*
X0077932Y0214537D02*
X0077165Y0215304D01*
X0075630Y0215304D01*
X0074863Y0214537D01*
X0074863Y0213769D01*
X0075630Y0213002D01*
X0077165Y0213002D01*
X0077932Y0212235D01*
X0077932Y0211467D01*
X0077165Y0210700D01*
X0075630Y0210700D01*
X0074863Y0211467D01*
X0081002Y0210700D02*
X0081002Y0215304D01*
X0082536Y0215304D02*
X0079467Y0215304D01*
X0087140Y0210700D02*
X0084071Y0210700D01*
X0087140Y0213769D01*
X0087140Y0214537D01*
X0086373Y0215304D01*
X0084838Y0215304D01*
X0084071Y0214537D01*
X0070759Y0410467D02*
X0071526Y0409700D01*
X0072294Y0409700D01*
X0073061Y0410467D01*
X0073061Y0414304D01*
X0072294Y0414304D02*
X0073828Y0414304D01*
X0078432Y0413537D02*
X0077665Y0414304D01*
X0076130Y0414304D01*
X0075363Y0413537D01*
X0075363Y0412769D01*
X0076130Y0412002D01*
X0077665Y0412002D01*
X0078432Y0411235D01*
X0078432Y0410467D01*
X0077665Y0409700D01*
X0076130Y0409700D01*
X0075363Y0410467D01*
X0081502Y0409700D02*
X0081502Y0414304D01*
X0083036Y0414304D02*
X0079967Y0414304D01*
X0086873Y0409700D02*
X0086873Y0414304D01*
X0084571Y0412002D01*
X0087640Y0412002D01*
X0071835Y0281885D02*
X0071835Y0286489D01*
X0074904Y0281885D01*
X0074904Y0286489D01*
X0078741Y0281885D02*
X0077206Y0281885D01*
X0076439Y0282652D01*
X0076439Y0284187D01*
X0077206Y0284954D01*
X0078741Y0284954D01*
X0079508Y0284187D01*
X0079508Y0283420D01*
X0076439Y0283420D01*
X0082577Y0280350D02*
X0083344Y0280350D01*
X0084112Y0281118D01*
X0084112Y0284954D01*
X0081810Y0284954D01*
X0081043Y0284187D01*
X0081043Y0282652D01*
X0081810Y0281885D01*
X0084112Y0281885D01*
X0087181Y0281885D02*
X0085646Y0283420D01*
X0085646Y0284954D01*
X0087181Y0286489D01*
X0088716Y0284187D02*
X0091785Y0284187D01*
X0093320Y0281885D02*
X0094854Y0283420D01*
X0094854Y0284954D01*
X0093320Y0286489D01*
X0009902Y0260826D02*
X0009902Y0265430D01*
X0012204Y0265430D01*
X0012971Y0264663D01*
X0012971Y0263128D01*
X0012204Y0262361D01*
X0009902Y0262361D01*
X0015273Y0260826D02*
X0016807Y0260826D01*
X0017575Y0261593D01*
X0017575Y0263128D01*
X0016807Y0263895D01*
X0015273Y0263895D01*
X0014506Y0263128D01*
X0014506Y0261593D01*
X0015273Y0260826D01*
X0019109Y0260826D02*
X0021411Y0260826D01*
X0022179Y0261593D01*
X0021411Y0262361D01*
X0019877Y0262361D01*
X0019109Y0263128D01*
X0019877Y0263895D01*
X0022179Y0263895D01*
X0025248Y0260826D02*
X0023713Y0262361D01*
X0023713Y0263895D01*
X0025248Y0265430D01*
X0026783Y0263128D02*
X0029852Y0263128D01*
X0028317Y0264663D02*
X0028317Y0261593D01*
X0031387Y0260826D02*
X0032921Y0262361D01*
X0032921Y0263895D01*
X0031387Y0265430D01*
X0071835Y0081885D02*
X0071835Y0086489D01*
X0074904Y0081885D01*
X0074904Y0086489D01*
X0078741Y0081885D02*
X0077206Y0081885D01*
X0076439Y0082652D01*
X0076439Y0084187D01*
X0077206Y0084954D01*
X0078741Y0084954D01*
X0079508Y0084187D01*
X0079508Y0083420D01*
X0076439Y0083420D01*
X0082577Y0080350D02*
X0083344Y0080350D01*
X0084112Y0081118D01*
X0084112Y0084954D01*
X0081810Y0084954D01*
X0081043Y0084187D01*
X0081043Y0082652D01*
X0081810Y0081885D01*
X0084112Y0081885D01*
X0087181Y0081885D02*
X0085646Y0083420D01*
X0085646Y0084954D01*
X0087181Y0086489D01*
X0088716Y0084187D02*
X0091785Y0084187D01*
X0093320Y0081885D02*
X0094854Y0083420D01*
X0094854Y0084954D01*
X0093320Y0086489D01*
X0009902Y0060826D02*
X0009902Y0065430D01*
X0012204Y0065430D01*
X0012971Y0064663D01*
X0012971Y0063128D01*
X0012204Y0062361D01*
X0009902Y0062361D01*
X0015273Y0060826D02*
X0016807Y0060826D01*
X0017575Y0061593D01*
X0017575Y0063128D01*
X0016807Y0063895D01*
X0015273Y0063895D01*
X0014506Y0063128D01*
X0014506Y0061593D01*
X0015273Y0060826D01*
X0019109Y0060826D02*
X0021411Y0060826D01*
X0022179Y0061593D01*
X0021411Y0062361D01*
X0019877Y0062361D01*
X0019109Y0063128D01*
X0019877Y0063895D01*
X0022179Y0063895D01*
X0025248Y0060826D02*
X0023713Y0062361D01*
X0023713Y0063895D01*
X0025248Y0065430D01*
X0026783Y0063128D02*
X0029852Y0063128D01*
X0028317Y0064663D02*
X0028317Y0061593D01*
X0031387Y0060826D02*
X0032921Y0062361D01*
X0032921Y0063895D01*
X0031387Y0065430D01*
X0071835Y0181885D02*
X0071835Y0186489D01*
X0074904Y0181885D01*
X0074904Y0186489D01*
X0078741Y0181885D02*
X0077206Y0181885D01*
X0076439Y0182652D01*
X0076439Y0184187D01*
X0077206Y0184954D01*
X0078741Y0184954D01*
X0079508Y0184187D01*
X0079508Y0183420D01*
X0076439Y0183420D01*
X0082577Y0180350D02*
X0083344Y0180350D01*
X0084112Y0181118D01*
X0084112Y0184954D01*
X0081810Y0184954D01*
X0081043Y0184187D01*
X0081043Y0182652D01*
X0081810Y0181885D01*
X0084112Y0181885D01*
X0087181Y0181885D02*
X0085646Y0183420D01*
X0085646Y0184954D01*
X0087181Y0186489D01*
X0088716Y0184187D02*
X0091785Y0184187D01*
X0093320Y0181885D02*
X0094854Y0183420D01*
X0094854Y0184954D01*
X0093320Y0186489D01*
X0009902Y0160826D02*
X0009902Y0165430D01*
X0012204Y0165430D01*
X0012971Y0164663D01*
X0012971Y0163128D01*
X0012204Y0162361D01*
X0009902Y0162361D01*
X0015273Y0160826D02*
X0016807Y0160826D01*
X0017575Y0161593D01*
X0017575Y0163128D01*
X0016807Y0163895D01*
X0015273Y0163895D01*
X0014506Y0163128D01*
X0014506Y0161593D01*
X0015273Y0160826D01*
X0019109Y0160826D02*
X0021411Y0160826D01*
X0022179Y0161593D01*
X0021411Y0162361D01*
X0019877Y0162361D01*
X0019109Y0163128D01*
X0019877Y0163895D01*
X0022179Y0163895D01*
X0025248Y0160826D02*
X0023713Y0162361D01*
X0023713Y0163895D01*
X0025248Y0165430D01*
X0026783Y0163128D02*
X0029852Y0163128D01*
X0028317Y0164663D02*
X0028317Y0161593D01*
X0031387Y0160826D02*
X0032921Y0162361D01*
X0032921Y0163895D01*
X0031387Y0165430D01*
X0071835Y0381885D02*
X0071835Y0386489D01*
X0074904Y0381885D01*
X0074904Y0386489D01*
X0078741Y0381885D02*
X0077206Y0381885D01*
X0076439Y0382652D01*
X0076439Y0384187D01*
X0077206Y0384954D01*
X0078741Y0384954D01*
X0079508Y0384187D01*
X0079508Y0383420D01*
X0076439Y0383420D01*
X0082577Y0380350D02*
X0083344Y0380350D01*
X0084112Y0381118D01*
X0084112Y0384954D01*
X0081810Y0384954D01*
X0081043Y0384187D01*
X0081043Y0382652D01*
X0081810Y0381885D01*
X0084112Y0381885D01*
X0087181Y0381885D02*
X0085646Y0383420D01*
X0085646Y0384954D01*
X0087181Y0386489D01*
X0088716Y0384187D02*
X0091785Y0384187D01*
X0093320Y0381885D02*
X0094854Y0383420D01*
X0094854Y0384954D01*
X0093320Y0386489D01*
X0009902Y0360826D02*
X0009902Y0365430D01*
X0012204Y0365430D01*
X0012971Y0364663D01*
X0012971Y0363128D01*
X0012204Y0362361D01*
X0009902Y0362361D01*
X0015273Y0360826D02*
X0016807Y0360826D01*
X0017575Y0361593D01*
X0017575Y0363128D01*
X0016807Y0363895D01*
X0015273Y0363895D01*
X0014506Y0363128D01*
X0014506Y0361593D01*
X0015273Y0360826D01*
X0019109Y0360826D02*
X0021411Y0360826D01*
X0022179Y0361593D01*
X0021411Y0362361D01*
X0019877Y0362361D01*
X0019109Y0363128D01*
X0019877Y0363895D01*
X0022179Y0363895D01*
X0025248Y0360826D02*
X0023713Y0362361D01*
X0023713Y0363895D01*
X0025248Y0365430D01*
X0026783Y0363128D02*
X0029852Y0363128D01*
X0028317Y0364663D02*
X0028317Y0361593D01*
X0031387Y0360826D02*
X0032921Y0362361D01*
X0032921Y0363895D01*
X0031387Y0365430D01*
X0105516Y0000496D02*
X0105516Y0035544D01*
X0110483Y0035544D01*
X0110484Y0035544D02*
X0110556Y0035542D01*
X0110629Y0035537D01*
X0110701Y0035528D01*
X0110773Y0035515D01*
X0110843Y0035498D01*
X0110913Y0035478D01*
X0110982Y0035455D01*
X0111050Y0035428D01*
X0111116Y0035397D01*
X0111180Y0035364D01*
X0111243Y0035327D01*
X0111304Y0035287D01*
X0111362Y0035244D01*
X0111419Y0035198D01*
X0111473Y0035149D01*
X0111524Y0035098D01*
X0111573Y0035044D01*
X0111619Y0034987D01*
X0111662Y0034929D01*
X0111702Y0034868D01*
X0111739Y0034805D01*
X0111772Y0034741D01*
X0111803Y0034675D01*
X0111830Y0034607D01*
X0111853Y0034538D01*
X0111873Y0034468D01*
X0111890Y0034398D01*
X0111903Y0034326D01*
X0111912Y0034254D01*
X0111917Y0034181D01*
X0111919Y0034109D01*
X0111919Y0032011D01*
X0129083Y0031846D02*
X0129083Y0034164D01*
X0129085Y0034236D01*
X0129091Y0034308D01*
X0129100Y0034380D01*
X0129113Y0034451D01*
X0129130Y0034521D01*
X0129150Y0034590D01*
X0129175Y0034658D01*
X0129202Y0034725D01*
X0129233Y0034790D01*
X0129268Y0034854D01*
X0129306Y0034916D01*
X0129347Y0034975D01*
X0129391Y0035032D01*
X0129437Y0035087D01*
X0129487Y0035140D01*
X0129540Y0035190D01*
X0129595Y0035236D01*
X0129652Y0035280D01*
X0129711Y0035321D01*
X0129773Y0035359D01*
X0129837Y0035394D01*
X0129902Y0035425D01*
X0129969Y0035452D01*
X0130037Y0035477D01*
X0130106Y0035497D01*
X0130176Y0035514D01*
X0130247Y0035527D01*
X0130319Y0035536D01*
X0130391Y0035542D01*
X0130463Y0035544D01*
X0135486Y0035544D01*
X0135486Y0014736D01*
X0135486Y0000496D01*
X0105516Y0000496D01*
X0135486Y0035544D02*
X0139184Y0035544D01*
X0139232Y0035542D01*
X0139279Y0035537D01*
X0139326Y0035528D01*
X0139372Y0035515D01*
X0139417Y0035498D01*
X0139460Y0035478D01*
X0139502Y0035455D01*
X0139541Y0035429D01*
X0139579Y0035399D01*
X0139614Y0035367D01*
X0139646Y0035332D01*
X0139676Y0035294D01*
X0139702Y0035254D01*
X0139726Y0035213D01*
X0139745Y0035169D01*
X0139762Y0035125D01*
X0139775Y0035079D01*
X0139784Y0035032D01*
X0139789Y0034984D01*
X0139791Y0034937D01*
X0139791Y0034936D01*
X0139791Y0034937D02*
X0139789Y0034888D01*
X0139784Y0034838D01*
X0139774Y0034790D01*
X0139762Y0034742D01*
X0139745Y0034695D01*
X0139725Y0034650D01*
X0139702Y0034606D01*
X0139676Y0034564D01*
X0139647Y0034524D01*
X0139614Y0034487D01*
X0139579Y0034452D01*
X0139542Y0034419D01*
X0139502Y0034390D01*
X0139460Y0034364D01*
X0139416Y0034341D01*
X0139371Y0034321D01*
X0139324Y0034304D01*
X0139276Y0034292D01*
X0139228Y0034282D01*
X0139178Y0034277D01*
X0139129Y0034275D01*
X0139129Y0034274D02*
X0138522Y0034274D01*
X0138521Y0034275D02*
X0138463Y0034273D01*
X0138406Y0034268D01*
X0138349Y0034258D01*
X0138292Y0034245D01*
X0138237Y0034228D01*
X0138183Y0034208D01*
X0138130Y0034184D01*
X0138079Y0034157D01*
X0138030Y0034127D01*
X0137983Y0034093D01*
X0137939Y0034056D01*
X0137896Y0034017D01*
X0137857Y0033974D01*
X0137820Y0033930D01*
X0137786Y0033883D01*
X0137756Y0033834D01*
X0137729Y0033783D01*
X0137705Y0033730D01*
X0137685Y0033676D01*
X0137668Y0033621D01*
X0137655Y0033564D01*
X0137645Y0033507D01*
X0137640Y0033450D01*
X0137638Y0033392D01*
X0137639Y0033391D02*
X0137639Y0033281D01*
X0137641Y0033223D01*
X0137647Y0033166D01*
X0137656Y0033109D01*
X0137669Y0033052D01*
X0137686Y0032997D01*
X0137706Y0032943D01*
X0137730Y0032890D01*
X0137757Y0032840D01*
X0137788Y0032790D01*
X0137821Y0032743D01*
X0137858Y0032699D01*
X0137898Y0032657D01*
X0137940Y0032617D01*
X0137984Y0032580D01*
X0138031Y0032547D01*
X0138081Y0032516D01*
X0138131Y0032489D01*
X0138184Y0032465D01*
X0138238Y0032445D01*
X0138293Y0032428D01*
X0138350Y0032415D01*
X0138407Y0032406D01*
X0138464Y0032400D01*
X0138522Y0032398D01*
X0139184Y0032398D01*
X0139232Y0032396D01*
X0139279Y0032391D01*
X0139326Y0032381D01*
X0139372Y0032368D01*
X0139416Y0032352D01*
X0139460Y0032332D01*
X0139501Y0032309D01*
X0139541Y0032282D01*
X0139578Y0032253D01*
X0139613Y0032220D01*
X0139646Y0032185D01*
X0139675Y0032148D01*
X0139702Y0032108D01*
X0139725Y0032067D01*
X0139745Y0032023D01*
X0139761Y0031979D01*
X0139774Y0031933D01*
X0139784Y0031886D01*
X0139789Y0031839D01*
X0139791Y0031791D01*
X0139789Y0031742D01*
X0139784Y0031692D01*
X0139774Y0031644D01*
X0139762Y0031596D01*
X0139745Y0031549D01*
X0139725Y0031504D01*
X0139702Y0031460D01*
X0139676Y0031418D01*
X0139647Y0031378D01*
X0139614Y0031341D01*
X0139579Y0031306D01*
X0139542Y0031273D01*
X0139502Y0031244D01*
X0139460Y0031218D01*
X0139416Y0031195D01*
X0139371Y0031175D01*
X0139324Y0031158D01*
X0139276Y0031146D01*
X0139228Y0031136D01*
X0139178Y0031131D01*
X0139129Y0031129D01*
X0139129Y0031128D02*
X0135707Y0031128D01*
X0135486Y0014736D02*
X0139184Y0014736D01*
X0139231Y0014734D01*
X0139279Y0014729D01*
X0139326Y0014720D01*
X0139372Y0014707D01*
X0139417Y0014690D01*
X0139460Y0014670D01*
X0139502Y0014647D01*
X0139541Y0014621D01*
X0139579Y0014591D01*
X0139614Y0014559D01*
X0139646Y0014524D01*
X0139676Y0014486D01*
X0139702Y0014446D01*
X0139726Y0014405D01*
X0139746Y0014361D01*
X0139762Y0014316D01*
X0139775Y0014270D01*
X0139784Y0014223D01*
X0139789Y0014176D01*
X0139791Y0014128D01*
X0139791Y0014129D01*
X0139789Y0014080D01*
X0139784Y0014030D01*
X0139774Y0013982D01*
X0139762Y0013934D01*
X0139745Y0013887D01*
X0139725Y0013842D01*
X0139702Y0013798D01*
X0139676Y0013756D01*
X0139647Y0013716D01*
X0139614Y0013679D01*
X0139579Y0013644D01*
X0139542Y0013611D01*
X0139502Y0013582D01*
X0139460Y0013556D01*
X0139416Y0013533D01*
X0139371Y0013513D01*
X0139324Y0013496D01*
X0139276Y0013484D01*
X0139228Y0013474D01*
X0139178Y0013469D01*
X0139129Y0013467D01*
X0138522Y0013467D01*
X0138521Y0013467D02*
X0138463Y0013465D01*
X0138406Y0013460D01*
X0138349Y0013450D01*
X0138292Y0013437D01*
X0138237Y0013420D01*
X0138183Y0013400D01*
X0138130Y0013376D01*
X0138079Y0013349D01*
X0138030Y0013319D01*
X0137983Y0013285D01*
X0137939Y0013248D01*
X0137896Y0013209D01*
X0137857Y0013166D01*
X0137820Y0013122D01*
X0137786Y0013075D01*
X0137756Y0013026D01*
X0137729Y0012975D01*
X0137705Y0012922D01*
X0137685Y0012868D01*
X0137668Y0012813D01*
X0137655Y0012756D01*
X0137645Y0012699D01*
X0137640Y0012642D01*
X0137638Y0012584D01*
X0137639Y0012583D02*
X0137639Y0012473D01*
X0137638Y0012472D02*
X0137640Y0012415D01*
X0137646Y0012357D01*
X0137655Y0012300D01*
X0137668Y0012244D01*
X0137685Y0012188D01*
X0137705Y0012134D01*
X0137729Y0012082D01*
X0137756Y0012031D01*
X0137787Y0011982D01*
X0137820Y0011935D01*
X0137857Y0011890D01*
X0137897Y0011848D01*
X0137939Y0011808D01*
X0137984Y0011771D01*
X0138031Y0011738D01*
X0138080Y0011707D01*
X0138131Y0011680D01*
X0138183Y0011656D01*
X0138237Y0011636D01*
X0138293Y0011619D01*
X0138349Y0011606D01*
X0138406Y0011597D01*
X0138464Y0011591D01*
X0138521Y0011589D01*
X0138522Y0011590D02*
X0139184Y0011590D01*
X0139232Y0011588D01*
X0139279Y0011583D01*
X0139326Y0011573D01*
X0139372Y0011560D01*
X0139416Y0011544D01*
X0139460Y0011524D01*
X0139501Y0011501D01*
X0139541Y0011474D01*
X0139578Y0011445D01*
X0139613Y0011412D01*
X0139646Y0011377D01*
X0139675Y0011340D01*
X0139702Y0011300D01*
X0139725Y0011259D01*
X0139745Y0011215D01*
X0139761Y0011171D01*
X0139774Y0011125D01*
X0139784Y0011078D01*
X0139789Y0011031D01*
X0139791Y0010983D01*
X0139789Y0010934D01*
X0139784Y0010884D01*
X0139774Y0010836D01*
X0139762Y0010788D01*
X0139745Y0010741D01*
X0139725Y0010696D01*
X0139702Y0010652D01*
X0139676Y0010610D01*
X0139647Y0010570D01*
X0139614Y0010533D01*
X0139579Y0010498D01*
X0139542Y0010465D01*
X0139502Y0010436D01*
X0139460Y0010410D01*
X0139416Y0010387D01*
X0139371Y0010367D01*
X0139324Y0010350D01*
X0139276Y0010338D01*
X0139228Y0010328D01*
X0139178Y0010323D01*
X0139129Y0010321D01*
X0139129Y0010320D02*
X0135707Y0010320D01*
X0105517Y0010321D02*
X0101819Y0010321D01*
X0101818Y0010321D02*
X0101771Y0010323D01*
X0101723Y0010328D01*
X0101676Y0010337D01*
X0101630Y0010350D01*
X0101585Y0010367D01*
X0101542Y0010387D01*
X0101500Y0010410D01*
X0101461Y0010436D01*
X0101423Y0010466D01*
X0101388Y0010498D01*
X0101356Y0010533D01*
X0101326Y0010571D01*
X0101300Y0010611D01*
X0101276Y0010652D01*
X0101256Y0010696D01*
X0101240Y0010741D01*
X0101227Y0010787D01*
X0101218Y0010834D01*
X0101213Y0010881D01*
X0101211Y0010929D01*
X0101211Y0010928D02*
X0101211Y0010928D01*
X0101212Y0010928D02*
X0101214Y0010977D01*
X0101219Y0011027D01*
X0101229Y0011075D01*
X0101241Y0011123D01*
X0101258Y0011170D01*
X0101278Y0011215D01*
X0101301Y0011259D01*
X0101327Y0011301D01*
X0101356Y0011341D01*
X0101389Y0011378D01*
X0101424Y0011413D01*
X0101461Y0011446D01*
X0101501Y0011475D01*
X0101543Y0011501D01*
X0101587Y0011524D01*
X0101632Y0011544D01*
X0101679Y0011561D01*
X0101727Y0011573D01*
X0101775Y0011583D01*
X0101825Y0011588D01*
X0101874Y0011590D01*
X0102481Y0011590D01*
X0102480Y0011590D02*
X0102538Y0011592D01*
X0102595Y0011597D01*
X0102652Y0011607D01*
X0102709Y0011620D01*
X0102764Y0011637D01*
X0102818Y0011657D01*
X0102871Y0011681D01*
X0102922Y0011708D01*
X0102971Y0011739D01*
X0103018Y0011772D01*
X0103062Y0011809D01*
X0103105Y0011848D01*
X0103144Y0011891D01*
X0103181Y0011935D01*
X0103214Y0011982D01*
X0103245Y0012031D01*
X0103272Y0012082D01*
X0103296Y0012135D01*
X0103316Y0012189D01*
X0103333Y0012244D01*
X0103346Y0012301D01*
X0103356Y0012358D01*
X0103361Y0012415D01*
X0103363Y0012473D01*
X0103364Y0012473D02*
X0103364Y0012584D01*
X0103363Y0012584D02*
X0103361Y0012642D01*
X0103356Y0012699D01*
X0103346Y0012756D01*
X0103333Y0012813D01*
X0103316Y0012868D01*
X0103296Y0012922D01*
X0103272Y0012975D01*
X0103245Y0013026D01*
X0103214Y0013075D01*
X0103181Y0013122D01*
X0103144Y0013166D01*
X0103105Y0013209D01*
X0103062Y0013248D01*
X0103018Y0013285D01*
X0102971Y0013318D01*
X0102922Y0013349D01*
X0102871Y0013376D01*
X0102818Y0013400D01*
X0102764Y0013420D01*
X0102709Y0013437D01*
X0102652Y0013450D01*
X0102595Y0013460D01*
X0102538Y0013465D01*
X0102480Y0013467D01*
X0102481Y0013467D02*
X0101819Y0013467D01*
X0101771Y0013469D01*
X0101724Y0013474D01*
X0101677Y0013484D01*
X0101631Y0013497D01*
X0101587Y0013513D01*
X0101543Y0013533D01*
X0101502Y0013556D01*
X0101462Y0013583D01*
X0101425Y0013612D01*
X0101390Y0013645D01*
X0101357Y0013680D01*
X0101328Y0013717D01*
X0101301Y0013757D01*
X0101278Y0013798D01*
X0101258Y0013842D01*
X0101242Y0013886D01*
X0101229Y0013932D01*
X0101219Y0013979D01*
X0101214Y0014026D01*
X0101212Y0014074D01*
X0101214Y0014123D01*
X0101219Y0014173D01*
X0101229Y0014221D01*
X0101241Y0014269D01*
X0101258Y0014316D01*
X0101278Y0014361D01*
X0101301Y0014405D01*
X0101327Y0014447D01*
X0101356Y0014487D01*
X0101389Y0014524D01*
X0101424Y0014559D01*
X0101461Y0014592D01*
X0101501Y0014621D01*
X0101543Y0014647D01*
X0101587Y0014670D01*
X0101632Y0014690D01*
X0101679Y0014707D01*
X0101727Y0014719D01*
X0101775Y0014729D01*
X0101825Y0014734D01*
X0101874Y0014736D01*
X0105296Y0014736D01*
X0105517Y0031129D02*
X0101819Y0031129D01*
X0101819Y0031128D02*
X0101771Y0031130D01*
X0101723Y0031135D01*
X0101677Y0031145D01*
X0101631Y0031157D01*
X0101586Y0031174D01*
X0101542Y0031194D01*
X0101501Y0031217D01*
X0101461Y0031244D01*
X0101423Y0031273D01*
X0101388Y0031306D01*
X0101356Y0031341D01*
X0101326Y0031378D01*
X0101300Y0031418D01*
X0101277Y0031460D01*
X0101257Y0031503D01*
X0101240Y0031548D01*
X0101227Y0031594D01*
X0101218Y0031641D01*
X0101213Y0031688D01*
X0101211Y0031736D01*
X0101211Y0031736D01*
X0101212Y0031736D02*
X0101214Y0031785D01*
X0101219Y0031835D01*
X0101229Y0031883D01*
X0101241Y0031931D01*
X0101258Y0031978D01*
X0101278Y0032023D01*
X0101301Y0032067D01*
X0101327Y0032109D01*
X0101356Y0032149D01*
X0101389Y0032186D01*
X0101424Y0032221D01*
X0101461Y0032254D01*
X0101501Y0032283D01*
X0101543Y0032309D01*
X0101587Y0032332D01*
X0101632Y0032352D01*
X0101679Y0032369D01*
X0101727Y0032381D01*
X0101775Y0032391D01*
X0101825Y0032396D01*
X0101874Y0032398D01*
X0102481Y0032398D01*
X0102539Y0032400D01*
X0102596Y0032406D01*
X0102653Y0032415D01*
X0102710Y0032428D01*
X0102765Y0032445D01*
X0102819Y0032465D01*
X0102872Y0032489D01*
X0102923Y0032516D01*
X0102972Y0032547D01*
X0103019Y0032580D01*
X0103063Y0032617D01*
X0103105Y0032657D01*
X0103145Y0032699D01*
X0103182Y0032743D01*
X0103215Y0032790D01*
X0103246Y0032840D01*
X0103273Y0032890D01*
X0103297Y0032943D01*
X0103317Y0032997D01*
X0103334Y0033052D01*
X0103347Y0033109D01*
X0103356Y0033166D01*
X0103362Y0033223D01*
X0103364Y0033281D01*
X0103364Y0033392D01*
X0103362Y0033449D01*
X0103356Y0033507D01*
X0103347Y0033564D01*
X0103334Y0033620D01*
X0103317Y0033676D01*
X0103297Y0033730D01*
X0103273Y0033782D01*
X0103246Y0033833D01*
X0103215Y0033882D01*
X0103182Y0033929D01*
X0103145Y0033974D01*
X0103105Y0034016D01*
X0103063Y0034056D01*
X0103018Y0034093D01*
X0102971Y0034126D01*
X0102922Y0034157D01*
X0102871Y0034184D01*
X0102819Y0034208D01*
X0102765Y0034228D01*
X0102709Y0034245D01*
X0102653Y0034258D01*
X0102596Y0034267D01*
X0102538Y0034273D01*
X0102481Y0034275D01*
X0101819Y0034275D01*
X0101771Y0034277D01*
X0101724Y0034282D01*
X0101677Y0034292D01*
X0101631Y0034305D01*
X0101587Y0034321D01*
X0101543Y0034341D01*
X0101502Y0034364D01*
X0101462Y0034391D01*
X0101425Y0034420D01*
X0101390Y0034453D01*
X0101357Y0034488D01*
X0101328Y0034525D01*
X0101301Y0034565D01*
X0101278Y0034606D01*
X0101258Y0034650D01*
X0101242Y0034694D01*
X0101229Y0034740D01*
X0101219Y0034787D01*
X0101214Y0034834D01*
X0101212Y0034882D01*
X0101214Y0034931D01*
X0101219Y0034981D01*
X0101229Y0035029D01*
X0101241Y0035077D01*
X0101258Y0035124D01*
X0101278Y0035169D01*
X0101301Y0035213D01*
X0101327Y0035255D01*
X0101356Y0035295D01*
X0101389Y0035332D01*
X0101424Y0035367D01*
X0101461Y0035400D01*
X0101501Y0035429D01*
X0101543Y0035455D01*
X0101587Y0035478D01*
X0101632Y0035498D01*
X0101679Y0035515D01*
X0101727Y0035527D01*
X0101775Y0035537D01*
X0101825Y0035542D01*
X0101874Y0035544D01*
X0105572Y0035544D01*
X0105737Y0005188D02*
X0111808Y0005188D01*
X0111809Y0005187D02*
X0111881Y0005189D01*
X0111953Y0005195D01*
X0112025Y0005204D01*
X0112096Y0005217D01*
X0112166Y0005234D01*
X0112235Y0005254D01*
X0112303Y0005279D01*
X0112370Y0005306D01*
X0112435Y0005337D01*
X0112499Y0005372D01*
X0112561Y0005410D01*
X0112620Y0005451D01*
X0112677Y0005495D01*
X0112732Y0005541D01*
X0112785Y0005591D01*
X0112835Y0005644D01*
X0112881Y0005699D01*
X0112925Y0005756D01*
X0112966Y0005815D01*
X0113004Y0005877D01*
X0113039Y0005941D01*
X0113070Y0006006D01*
X0113097Y0006073D01*
X0113122Y0006141D01*
X0113142Y0006210D01*
X0113159Y0006280D01*
X0113172Y0006351D01*
X0113181Y0006423D01*
X0113187Y0006495D01*
X0113189Y0006567D01*
X0113188Y0006568D02*
X0113188Y0006733D01*
X0113850Y0021194D01*
X0113851Y0021242D01*
X0113847Y0021289D01*
X0113839Y0021336D01*
X0113828Y0021383D01*
X0113812Y0021428D01*
X0113793Y0021472D01*
X0113771Y0021514D01*
X0113745Y0021555D01*
X0113715Y0021593D01*
X0113683Y0021628D01*
X0113648Y0021661D01*
X0113611Y0021690D01*
X0113571Y0021717D01*
X0113529Y0021740D01*
X0113485Y0021759D01*
X0113440Y0021775D01*
X0113393Y0021787D01*
X0113346Y0021795D01*
X0113299Y0021799D01*
X0113251Y0021800D01*
X0113203Y0021796D01*
X0113156Y0021788D01*
X0113109Y0021777D01*
X0113064Y0021762D01*
X0113020Y0021743D01*
X0112978Y0021720D01*
X0112937Y0021694D01*
X0112899Y0021665D01*
X0112864Y0021633D01*
X0112831Y0021598D01*
X0112801Y0021561D01*
X0112775Y0021521D01*
X0112752Y0021479D01*
X0112732Y0021435D01*
X0112716Y0021390D01*
X0112704Y0021344D01*
X0112696Y0021296D01*
X0112692Y0021249D01*
X0112691Y0021249D02*
X0111808Y0007892D01*
X0111802Y0007831D01*
X0111792Y0007770D01*
X0111778Y0007710D01*
X0111760Y0007650D01*
X0111739Y0007592D01*
X0111714Y0007536D01*
X0111685Y0007481D01*
X0111653Y0007428D01*
X0111618Y0007378D01*
X0111580Y0007329D01*
X0111538Y0007284D01*
X0111494Y0007241D01*
X0111447Y0007201D01*
X0111397Y0007164D01*
X0111346Y0007130D01*
X0111292Y0007099D01*
X0111236Y0007073D01*
X0111179Y0007049D01*
X0111120Y0007030D01*
X0111061Y0007014D01*
X0111000Y0007002D01*
X0110939Y0006994D01*
X0110877Y0006990D01*
X0110815Y0006989D01*
X0110754Y0006993D01*
X0110692Y0007001D01*
X0110632Y0007012D01*
X0110572Y0007028D01*
X0110513Y0007047D01*
X0110456Y0007070D01*
X0110400Y0007096D01*
X0110346Y0007126D01*
X0110294Y0007160D01*
X0110244Y0007196D01*
X0110197Y0007236D01*
X0110153Y0007279D01*
X0110111Y0007324D01*
X0110072Y0007372D01*
X0110036Y0007423D01*
X0110004Y0007475D01*
X0109975Y0007530D01*
X0109949Y0007586D01*
X0109928Y0007644D01*
X0109910Y0007703D01*
X0109895Y0007763D01*
X0109885Y0007824D01*
X0109879Y0007886D01*
X0109876Y0007947D01*
X0108993Y0021359D01*
X0108989Y0021400D01*
X0108981Y0021440D01*
X0108969Y0021479D01*
X0108955Y0021517D01*
X0108937Y0021554D01*
X0108916Y0021589D01*
X0108892Y0021622D01*
X0108865Y0021653D01*
X0108835Y0021681D01*
X0108804Y0021707D01*
X0108770Y0021730D01*
X0108734Y0021750D01*
X0108697Y0021767D01*
X0108659Y0021781D01*
X0108619Y0021791D01*
X0108579Y0021797D01*
X0108538Y0021801D01*
X0108497Y0021800D01*
X0108497Y0021801D02*
X0105737Y0021801D01*
X0116223Y0021635D02*
X0116225Y0021707D01*
X0116231Y0021778D01*
X0116241Y0021849D01*
X0116254Y0021920D01*
X0116271Y0021989D01*
X0116293Y0022058D01*
X0116317Y0022125D01*
X0116346Y0022191D01*
X0116378Y0022255D01*
X0116413Y0022318D01*
X0116452Y0022378D01*
X0116493Y0022437D01*
X0116538Y0022492D01*
X0116586Y0022546D01*
X0116637Y0022597D01*
X0116691Y0022645D01*
X0116746Y0022690D01*
X0116805Y0022731D01*
X0116865Y0022770D01*
X0116928Y0022805D01*
X0116992Y0022837D01*
X0117058Y0022866D01*
X0117125Y0022890D01*
X0117194Y0022912D01*
X0117263Y0022929D01*
X0117334Y0022942D01*
X0117405Y0022952D01*
X0117476Y0022958D01*
X0117548Y0022960D01*
X0116224Y0021635D02*
X0115396Y0005795D01*
X0115395Y0005750D01*
X0115399Y0005706D01*
X0115406Y0005662D01*
X0115416Y0005618D01*
X0115431Y0005576D01*
X0115449Y0005535D01*
X0115470Y0005496D01*
X0115495Y0005459D01*
X0115522Y0005424D01*
X0115553Y0005392D01*
X0115586Y0005362D01*
X0115622Y0005335D01*
X0115659Y0005311D01*
X0115699Y0005291D01*
X0115740Y0005274D01*
X0115783Y0005260D01*
X0115826Y0005250D01*
X0115870Y0005244D01*
X0115915Y0005242D01*
X0115959Y0005243D01*
X0116004Y0005249D01*
X0116047Y0005258D01*
X0116090Y0005270D01*
X0116131Y0005286D01*
X0116171Y0005306D01*
X0116210Y0005329D01*
X0116246Y0005355D01*
X0116279Y0005384D01*
X0116311Y0005416D01*
X0116339Y0005451D01*
X0116364Y0005487D01*
X0116386Y0005526D01*
X0116405Y0005566D01*
X0116420Y0005608D01*
X0116432Y0005651D01*
X0116440Y0005695D01*
X0116444Y0005739D01*
X0116444Y0005740D02*
X0117107Y0017993D01*
X0117109Y0018074D01*
X0117115Y0018156D01*
X0117124Y0018237D01*
X0117138Y0018317D01*
X0117155Y0018396D01*
X0117176Y0018475D01*
X0117201Y0018553D01*
X0117230Y0018629D01*
X0117262Y0018704D01*
X0117297Y0018777D01*
X0117336Y0018849D01*
X0117379Y0018918D01*
X0117424Y0018985D01*
X0117473Y0019051D01*
X0117525Y0019113D01*
X0117580Y0019174D01*
X0117637Y0019231D01*
X0117698Y0019286D01*
X0117760Y0019338D01*
X0117826Y0019387D01*
X0117893Y0019432D01*
X0117963Y0019475D01*
X0118034Y0019514D01*
X0118107Y0019549D01*
X0118182Y0019581D01*
X0118258Y0019610D01*
X0118336Y0019635D01*
X0118415Y0019656D01*
X0118494Y0019673D01*
X0118574Y0019687D01*
X0118655Y0019696D01*
X0118737Y0019702D01*
X0118818Y0019704D01*
X0122295Y0019704D01*
X0122374Y0019702D01*
X0122452Y0019697D01*
X0122531Y0019687D01*
X0122608Y0019674D01*
X0122685Y0019657D01*
X0122762Y0019637D01*
X0122837Y0019613D01*
X0122910Y0019585D01*
X0122983Y0019554D01*
X0123054Y0019520D01*
X0123123Y0019482D01*
X0123190Y0019441D01*
X0123256Y0019397D01*
X0123319Y0019350D01*
X0123379Y0019300D01*
X0123438Y0019247D01*
X0123494Y0019191D01*
X0123547Y0019132D01*
X0123597Y0019072D01*
X0123644Y0019009D01*
X0123688Y0018943D01*
X0123729Y0018876D01*
X0123767Y0018807D01*
X0123801Y0018736D01*
X0123832Y0018663D01*
X0123860Y0018590D01*
X0123884Y0018515D01*
X0123904Y0018438D01*
X0123921Y0018361D01*
X0123934Y0018284D01*
X0123944Y0018205D01*
X0123949Y0018127D01*
X0123951Y0018048D01*
X0123951Y0017772D01*
X0124503Y0005795D01*
X0124504Y0005794D02*
X0124508Y0005748D01*
X0124516Y0005702D01*
X0124528Y0005657D01*
X0124543Y0005613D01*
X0124563Y0005570D01*
X0124586Y0005529D01*
X0124612Y0005491D01*
X0124641Y0005454D01*
X0124674Y0005421D01*
X0124709Y0005390D01*
X0124747Y0005362D01*
X0124786Y0005338D01*
X0124828Y0005317D01*
X0124872Y0005299D01*
X0124916Y0005286D01*
X0124962Y0005276D01*
X0125008Y0005270D01*
X0125055Y0005268D01*
X0125102Y0005270D01*
X0125148Y0005276D01*
X0125194Y0005286D01*
X0125238Y0005299D01*
X0125282Y0005317D01*
X0125324Y0005338D01*
X0125363Y0005362D01*
X0125401Y0005390D01*
X0125436Y0005421D01*
X0125469Y0005454D01*
X0125498Y0005491D01*
X0125524Y0005529D01*
X0125547Y0005570D01*
X0125567Y0005613D01*
X0125582Y0005657D01*
X0125594Y0005702D01*
X0125602Y0005748D01*
X0125606Y0005794D01*
X0125606Y0005795D02*
X0124779Y0021525D01*
X0124777Y0021600D01*
X0124771Y0021675D01*
X0124761Y0021749D01*
X0124748Y0021823D01*
X0124730Y0021896D01*
X0124709Y0021968D01*
X0124684Y0022039D01*
X0124655Y0022109D01*
X0124623Y0022176D01*
X0124587Y0022243D01*
X0124547Y0022307D01*
X0124505Y0022368D01*
X0124459Y0022428D01*
X0124410Y0022485D01*
X0124359Y0022540D01*
X0124304Y0022591D01*
X0124247Y0022640D01*
X0124187Y0022686D01*
X0124126Y0022728D01*
X0124062Y0022768D01*
X0123995Y0022804D01*
X0123928Y0022836D01*
X0123858Y0022865D01*
X0123787Y0022890D01*
X0123715Y0022911D01*
X0123642Y0022929D01*
X0123568Y0022942D01*
X0123494Y0022952D01*
X0123419Y0022958D01*
X0123344Y0022960D01*
X0117548Y0022960D01*
X0135265Y0005188D02*
X0129194Y0005188D01*
X0129121Y0005190D01*
X0129049Y0005196D01*
X0128978Y0005205D01*
X0128907Y0005218D01*
X0128837Y0005235D01*
X0128767Y0005256D01*
X0128699Y0005280D01*
X0128633Y0005307D01*
X0128567Y0005338D01*
X0128504Y0005373D01*
X0128442Y0005411D01*
X0128383Y0005452D01*
X0128325Y0005496D01*
X0128271Y0005542D01*
X0128218Y0005592D01*
X0128168Y0005645D01*
X0128122Y0005699D01*
X0128078Y0005757D01*
X0128037Y0005816D01*
X0127999Y0005878D01*
X0127964Y0005941D01*
X0127933Y0006007D01*
X0127906Y0006073D01*
X0127882Y0006141D01*
X0127861Y0006211D01*
X0127844Y0006281D01*
X0127831Y0006352D01*
X0127822Y0006423D01*
X0127816Y0006495D01*
X0127814Y0006568D01*
X0127814Y0006733D01*
X0127152Y0021194D01*
X0127153Y0021194D02*
X0127152Y0021242D01*
X0127156Y0021289D01*
X0127164Y0021336D01*
X0127175Y0021383D01*
X0127191Y0021428D01*
X0127210Y0021472D01*
X0127232Y0021514D01*
X0127258Y0021555D01*
X0127288Y0021593D01*
X0127320Y0021628D01*
X0127355Y0021661D01*
X0127392Y0021690D01*
X0127432Y0021717D01*
X0127474Y0021740D01*
X0127518Y0021759D01*
X0127563Y0021775D01*
X0127610Y0021787D01*
X0127657Y0021795D01*
X0127704Y0021799D01*
X0127752Y0021800D01*
X0127800Y0021796D01*
X0127847Y0021788D01*
X0127894Y0021777D01*
X0127939Y0021762D01*
X0127983Y0021743D01*
X0128025Y0021720D01*
X0128066Y0021694D01*
X0128104Y0021665D01*
X0128139Y0021633D01*
X0128172Y0021598D01*
X0128202Y0021561D01*
X0128228Y0021521D01*
X0128251Y0021479D01*
X0128271Y0021435D01*
X0128287Y0021390D01*
X0128299Y0021344D01*
X0128307Y0021296D01*
X0128311Y0021249D01*
X0129194Y0007893D01*
X0129194Y0007892D02*
X0129200Y0007831D01*
X0129210Y0007770D01*
X0129224Y0007710D01*
X0129242Y0007650D01*
X0129263Y0007592D01*
X0129288Y0007536D01*
X0129317Y0007481D01*
X0129349Y0007428D01*
X0129384Y0007378D01*
X0129422Y0007329D01*
X0129464Y0007284D01*
X0129508Y0007241D01*
X0129555Y0007201D01*
X0129605Y0007164D01*
X0129656Y0007130D01*
X0129710Y0007099D01*
X0129766Y0007073D01*
X0129823Y0007049D01*
X0129882Y0007030D01*
X0129941Y0007014D01*
X0130002Y0007002D01*
X0130063Y0006994D01*
X0130125Y0006990D01*
X0130187Y0006989D01*
X0130248Y0006993D01*
X0130310Y0007001D01*
X0130370Y0007012D01*
X0130430Y0007028D01*
X0130489Y0007047D01*
X0130546Y0007070D01*
X0130602Y0007096D01*
X0130656Y0007126D01*
X0130708Y0007160D01*
X0130758Y0007196D01*
X0130805Y0007236D01*
X0130849Y0007279D01*
X0130891Y0007324D01*
X0130930Y0007372D01*
X0130966Y0007423D01*
X0130998Y0007475D01*
X0131027Y0007530D01*
X0131053Y0007586D01*
X0131074Y0007644D01*
X0131092Y0007703D01*
X0131107Y0007763D01*
X0131117Y0007824D01*
X0131123Y0007886D01*
X0131126Y0007947D01*
X0131126Y0007948D02*
X0132009Y0021359D01*
X0132013Y0021400D01*
X0132021Y0021440D01*
X0132033Y0021479D01*
X0132047Y0021517D01*
X0132065Y0021554D01*
X0132086Y0021589D01*
X0132110Y0021622D01*
X0132137Y0021653D01*
X0132167Y0021681D01*
X0132198Y0021707D01*
X0132232Y0021730D01*
X0132268Y0021750D01*
X0132305Y0021767D01*
X0132343Y0021781D01*
X0132383Y0021791D01*
X0132423Y0021797D01*
X0132464Y0021801D01*
X0132505Y0021800D01*
X0132506Y0021801D02*
X0135265Y0021801D01*
X0089700Y0041200D02*
X0089700Y0045804D01*
X0092002Y0045804D01*
X0092769Y0045037D01*
X0092769Y0043502D01*
X0092002Y0042735D01*
X0089700Y0042735D01*
X0091235Y0042735D02*
X0092769Y0041200D01*
X0097373Y0041200D02*
X0094304Y0041200D01*
X0097373Y0044269D01*
X0097373Y0045037D01*
X0096606Y0045804D01*
X0095071Y0045804D01*
X0094304Y0045037D01*
X0101977Y0045804D02*
X0098908Y0045804D01*
X0098908Y0043502D01*
X0100442Y0044269D01*
X0101210Y0044269D01*
X0101977Y0043502D01*
X0101977Y0041967D01*
X0101210Y0041200D01*
X0099675Y0041200D01*
X0098908Y0041967D01*
D11*
X0019568Y0057068D02*
X0018467Y0057068D01*
X0018100Y0056701D01*
X0018100Y0055967D01*
X0018467Y0055600D01*
X0019568Y0055600D01*
X0020310Y0055600D02*
X0020310Y0057802D01*
X0020310Y0056701D02*
X0020677Y0057068D01*
X0021411Y0057068D01*
X0021778Y0056701D01*
X0021778Y0055600D01*
X0022887Y0057068D02*
X0023621Y0057068D01*
X0023988Y0056701D01*
X0023988Y0055600D01*
X0022887Y0055600D01*
X0022520Y0055967D01*
X0022887Y0056334D01*
X0023988Y0056334D01*
X0024730Y0055600D02*
X0024730Y0057068D01*
X0024730Y0056334D02*
X0025464Y0057068D01*
X0025831Y0057068D01*
X0027305Y0054866D02*
X0027672Y0054866D01*
X0028039Y0055233D01*
X0028039Y0057068D01*
X0026938Y0057068D01*
X0026571Y0056701D01*
X0026571Y0055967D01*
X0026938Y0055600D01*
X0028039Y0055600D01*
X0028781Y0057068D02*
X0029148Y0057068D01*
X0029148Y0055600D01*
X0028781Y0055600D02*
X0029515Y0055600D01*
X0029148Y0057802D02*
X0029148Y0058169D01*
X0030254Y0055600D02*
X0030254Y0057068D01*
X0031355Y0057068D01*
X0031722Y0056701D01*
X0031722Y0055600D01*
X0033198Y0054866D02*
X0033565Y0054866D01*
X0033932Y0055233D01*
X0033932Y0057068D01*
X0032831Y0057068D01*
X0032464Y0056701D01*
X0032464Y0055967D01*
X0032831Y0055600D01*
X0033932Y0055600D01*
X0034674Y0055233D02*
X0036142Y0055233D01*
X0036884Y0057068D02*
X0037618Y0057802D01*
X0037618Y0055600D01*
X0036884Y0055600D02*
X0038352Y0055600D01*
X0017568Y0157568D02*
X0016467Y0157568D01*
X0016100Y0157201D01*
X0016100Y0156467D01*
X0016467Y0156100D01*
X0017568Y0156100D01*
X0018310Y0156100D02*
X0018310Y0158302D01*
X0018310Y0157201D02*
X0018677Y0157568D01*
X0019411Y0157568D01*
X0019778Y0157201D01*
X0019778Y0156100D01*
X0020887Y0157568D02*
X0021621Y0157568D01*
X0021988Y0157201D01*
X0021988Y0156100D01*
X0020887Y0156100D01*
X0020520Y0156467D01*
X0020887Y0156834D01*
X0021988Y0156834D01*
X0022730Y0156100D02*
X0022730Y0157568D01*
X0022730Y0156834D02*
X0023464Y0157568D01*
X0023831Y0157568D01*
X0025305Y0155366D02*
X0025672Y0155366D01*
X0026039Y0155733D01*
X0026039Y0157568D01*
X0024938Y0157568D01*
X0024571Y0157201D01*
X0024571Y0156467D01*
X0024938Y0156100D01*
X0026039Y0156100D01*
X0026781Y0157568D02*
X0027148Y0157568D01*
X0027148Y0156100D01*
X0026781Y0156100D02*
X0027515Y0156100D01*
X0027148Y0158302D02*
X0027148Y0158669D01*
X0028254Y0156100D02*
X0028254Y0157568D01*
X0029355Y0157568D01*
X0029722Y0157201D01*
X0029722Y0156100D01*
X0031198Y0155366D02*
X0031565Y0155366D01*
X0031932Y0155733D01*
X0031932Y0157568D01*
X0030831Y0157568D01*
X0030464Y0157201D01*
X0030464Y0156467D01*
X0030831Y0156100D01*
X0031932Y0156100D01*
X0032674Y0155733D02*
X0034142Y0155733D01*
X0036352Y0156100D02*
X0034884Y0156100D01*
X0036352Y0157568D01*
X0036352Y0157935D01*
X0035985Y0158302D01*
X0035251Y0158302D01*
X0034884Y0157935D01*
X0018568Y0257568D02*
X0017467Y0257568D01*
X0017100Y0257201D01*
X0017100Y0256467D01*
X0017467Y0256100D01*
X0018568Y0256100D01*
X0019310Y0256100D02*
X0019310Y0258302D01*
X0019310Y0257201D02*
X0019677Y0257568D01*
X0020411Y0257568D01*
X0020778Y0257201D01*
X0020778Y0256100D01*
X0021887Y0257568D02*
X0022621Y0257568D01*
X0022988Y0257201D01*
X0022988Y0256100D01*
X0021887Y0256100D01*
X0021520Y0256467D01*
X0021887Y0256834D01*
X0022988Y0256834D01*
X0023730Y0256100D02*
X0023730Y0257568D01*
X0023730Y0256834D02*
X0024464Y0257568D01*
X0024831Y0257568D01*
X0026305Y0255366D02*
X0026672Y0255366D01*
X0027039Y0255733D01*
X0027039Y0257568D01*
X0025938Y0257568D01*
X0025571Y0257201D01*
X0025571Y0256467D01*
X0025938Y0256100D01*
X0027039Y0256100D01*
X0027781Y0257568D02*
X0028148Y0257568D01*
X0028148Y0256100D01*
X0027781Y0256100D02*
X0028515Y0256100D01*
X0028148Y0258302D02*
X0028148Y0258669D01*
X0029254Y0256100D02*
X0029254Y0257568D01*
X0030355Y0257568D01*
X0030722Y0257201D01*
X0030722Y0256100D01*
X0032198Y0255366D02*
X0032565Y0255366D01*
X0032932Y0255733D01*
X0032932Y0257568D01*
X0031831Y0257568D01*
X0031464Y0257201D01*
X0031464Y0256467D01*
X0031831Y0256100D01*
X0032932Y0256100D01*
X0033674Y0255733D02*
X0035142Y0255733D01*
X0035884Y0257935D02*
X0036251Y0258302D01*
X0036985Y0258302D01*
X0037352Y0257935D01*
X0037352Y0257568D01*
X0036985Y0257201D01*
X0036618Y0257201D01*
X0036985Y0257201D02*
X0037352Y0256834D01*
X0037352Y0256467D01*
X0036985Y0256100D01*
X0036251Y0256100D01*
X0035884Y0256467D01*
X0018068Y0357568D02*
X0016967Y0357568D01*
X0016600Y0357201D01*
X0016600Y0356467D01*
X0016967Y0356100D01*
X0018068Y0356100D01*
X0018810Y0356100D02*
X0018810Y0358302D01*
X0018810Y0357201D02*
X0019177Y0357568D01*
X0019911Y0357568D01*
X0020278Y0357201D01*
X0020278Y0356100D01*
X0021387Y0357568D02*
X0022121Y0357568D01*
X0022488Y0357201D01*
X0022488Y0356100D01*
X0021387Y0356100D01*
X0021020Y0356467D01*
X0021387Y0356834D01*
X0022488Y0356834D01*
X0023230Y0356100D02*
X0023230Y0357568D01*
X0023230Y0356834D02*
X0023964Y0357568D01*
X0024331Y0357568D01*
X0025805Y0355366D02*
X0026172Y0355366D01*
X0026539Y0355733D01*
X0026539Y0357568D01*
X0025438Y0357568D01*
X0025071Y0357201D01*
X0025071Y0356467D01*
X0025438Y0356100D01*
X0026539Y0356100D01*
X0027281Y0357568D02*
X0027648Y0357568D01*
X0027648Y0356100D01*
X0027281Y0356100D02*
X0028015Y0356100D01*
X0027648Y0358302D02*
X0027648Y0358669D01*
X0028754Y0356100D02*
X0028754Y0357568D01*
X0029855Y0357568D01*
X0030222Y0357201D01*
X0030222Y0356100D01*
X0031698Y0355366D02*
X0032065Y0355366D01*
X0032432Y0355733D01*
X0032432Y0357568D01*
X0031331Y0357568D01*
X0030964Y0357201D01*
X0030964Y0356467D01*
X0031331Y0356100D01*
X0032432Y0356100D01*
X0033174Y0355733D02*
X0034642Y0355733D01*
X0036485Y0356100D02*
X0036485Y0358302D01*
X0035384Y0357201D01*
X0036852Y0357201D01*
X0054370Y0054768D02*
X0054370Y0039232D01*
X0046630Y0039232D02*
X0046630Y0054768D01*
X0054370Y0054768D01*
X0054370Y0039232D02*
X0046630Y0039232D01*
X0033098Y0014201D02*
X0033098Y0025799D01*
X0036902Y0025799D01*
X0036902Y0014201D01*
X0033098Y0014201D01*
X0013098Y0019201D02*
X0013098Y0030799D01*
X0016902Y0030799D01*
X0016902Y0019201D01*
X0013098Y0019201D01*
X0016902Y0045799D02*
X0016902Y0034201D01*
X0013098Y0034201D01*
X0013098Y0045799D01*
X0016902Y0045799D01*
X0061701Y0052902D02*
X0073299Y0052902D01*
X0073299Y0049098D01*
X0061701Y0049098D01*
X0061701Y0052902D01*
X0038098Y0014201D02*
X0038098Y0025799D01*
X0041902Y0025799D01*
X0041902Y0014201D01*
X0038098Y0014201D01*
X0043098Y0014201D02*
X0043098Y0025799D01*
X0046902Y0025799D01*
X0046902Y0014201D01*
X0043098Y0014201D01*
X0073299Y0054098D02*
X0061701Y0054098D01*
X0061701Y0057902D01*
X0073299Y0057902D01*
X0073299Y0054098D01*
X0044870Y0054768D02*
X0044870Y0039232D01*
X0037130Y0039232D02*
X0037130Y0054768D01*
X0044870Y0054768D01*
X0044870Y0039232D02*
X0037130Y0039232D01*
X0053870Y0242232D02*
X0053870Y0257768D01*
X0046130Y0242232D02*
X0046130Y0257768D01*
X0053870Y0257768D01*
X0053870Y0242232D02*
X0046130Y0242232D01*
X0033098Y0214201D02*
X0033098Y0225799D01*
X0036902Y0225799D01*
X0036902Y0214201D01*
X0033098Y0214201D01*
X0013098Y0219201D02*
X0013098Y0230799D01*
X0016902Y0230799D01*
X0016902Y0219201D01*
X0013098Y0219201D01*
X0016902Y0245799D02*
X0016902Y0234201D01*
X0013098Y0234201D01*
X0013098Y0245799D01*
X0016902Y0245799D01*
X0064201Y0250402D02*
X0075799Y0250402D01*
X0075799Y0246598D01*
X0064201Y0246598D01*
X0064201Y0250402D01*
X0038098Y0214201D02*
X0038098Y0225799D01*
X0041902Y0225799D01*
X0041902Y0214201D01*
X0038098Y0214201D01*
X0043098Y0214201D02*
X0043098Y0225799D01*
X0046902Y0225799D01*
X0046902Y0214201D01*
X0043098Y0214201D01*
X0075799Y0253098D02*
X0064201Y0253098D01*
X0064201Y0256902D01*
X0075799Y0256902D01*
X0075799Y0253098D01*
X0043870Y0257768D02*
X0043870Y0242232D01*
X0036130Y0242232D02*
X0036130Y0257768D01*
X0043870Y0257768D01*
X0043870Y0242232D02*
X0036130Y0242232D01*
X0054370Y0157768D02*
X0054370Y0142232D01*
X0046630Y0142232D02*
X0046630Y0157768D01*
X0054370Y0157768D01*
X0054370Y0142232D02*
X0046630Y0142232D01*
X0033098Y0114201D02*
X0033098Y0125799D01*
X0036902Y0125799D01*
X0036902Y0114201D01*
X0033098Y0114201D01*
X0013098Y0119201D02*
X0013098Y0130799D01*
X0016902Y0130799D01*
X0016902Y0119201D01*
X0013098Y0119201D01*
X0016902Y0145799D02*
X0016902Y0134201D01*
X0013098Y0134201D01*
X0013098Y0145799D01*
X0016902Y0145799D01*
X0059201Y0152902D02*
X0070799Y0152902D01*
X0070799Y0149098D01*
X0059201Y0149098D01*
X0059201Y0152902D01*
X0038098Y0114201D02*
X0038098Y0125799D01*
X0041902Y0125799D01*
X0041902Y0114201D01*
X0038098Y0114201D01*
X0043098Y0114201D02*
X0043098Y0125799D01*
X0046902Y0125799D01*
X0046902Y0114201D01*
X0043098Y0114201D01*
X0070799Y0153598D02*
X0059201Y0153598D01*
X0059201Y0157402D01*
X0070799Y0157402D01*
X0070799Y0153598D01*
X0043370Y0157768D02*
X0043370Y0142232D01*
X0035630Y0142232D02*
X0035630Y0157768D01*
X0043370Y0157768D01*
X0043370Y0142232D02*
X0035630Y0142232D01*
X0053870Y0342232D02*
X0053870Y0357768D01*
X0046130Y0342232D02*
X0046130Y0357768D01*
X0053870Y0357768D01*
X0053870Y0342232D02*
X0046130Y0342232D01*
X0033098Y0314201D02*
X0033098Y0325799D01*
X0036902Y0325799D01*
X0036902Y0314201D01*
X0033098Y0314201D01*
X0013098Y0319201D02*
X0013098Y0330799D01*
X0016902Y0330799D01*
X0016902Y0319201D01*
X0013098Y0319201D01*
X0016902Y0345799D02*
X0016902Y0334201D01*
X0013098Y0334201D01*
X0013098Y0345799D01*
X0016902Y0345799D01*
X0065201Y0351902D02*
X0076799Y0351902D01*
X0076799Y0348098D01*
X0065201Y0348098D01*
X0065201Y0351902D01*
X0038098Y0314201D02*
X0038098Y0325799D01*
X0041902Y0325799D01*
X0041902Y0314201D01*
X0038098Y0314201D01*
X0043098Y0314201D02*
X0043098Y0325799D01*
X0046902Y0325799D01*
X0046902Y0314201D01*
X0043098Y0314201D01*
X0076799Y0353598D02*
X0065201Y0353598D01*
X0065201Y0357402D01*
X0076799Y0357402D01*
X0076799Y0353598D01*
X0043870Y0357768D02*
X0043870Y0342232D01*
X0036130Y0342232D02*
X0036130Y0357768D01*
X0043870Y0357768D01*
X0043870Y0342232D02*
X0036130Y0342232D01*
X0089268Y0033130D02*
X0073732Y0033130D01*
X0073732Y0040870D01*
X0089268Y0040870D01*
X0089268Y0033130D01*
D12*
X0025669Y0038543D02*
X0025669Y0039331D01*
X0034331Y0039331D01*
X0034331Y0038543D01*
X0034331Y0031457D02*
X0034331Y0030669D01*
X0025669Y0030669D01*
X0025669Y0031457D01*
X0023931Y0039724D02*
X0023933Y0039771D01*
X0023939Y0039817D01*
X0023948Y0039863D01*
X0023962Y0039907D01*
X0023979Y0039951D01*
X0024000Y0039992D01*
X0024024Y0040032D01*
X0024051Y0040070D01*
X0024082Y0040105D01*
X0024115Y0040138D01*
X0024151Y0040168D01*
X0024190Y0040194D01*
X0024230Y0040218D01*
X0024272Y0040237D01*
X0024316Y0040254D01*
X0024361Y0040266D01*
X0024407Y0040275D01*
X0024453Y0040280D01*
X0024500Y0040281D01*
X0024546Y0040278D01*
X0024592Y0040271D01*
X0024638Y0040260D01*
X0024682Y0040246D01*
X0024725Y0040228D01*
X0024766Y0040206D01*
X0024806Y0040181D01*
X0024843Y0040153D01*
X0024878Y0040122D01*
X0024910Y0040088D01*
X0024939Y0040051D01*
X0024964Y0040013D01*
X0024987Y0039972D01*
X0025006Y0039929D01*
X0025021Y0039885D01*
X0025033Y0039840D01*
X0025041Y0039794D01*
X0025045Y0039747D01*
X0025045Y0039701D01*
X0025041Y0039654D01*
X0025033Y0039608D01*
X0025021Y0039563D01*
X0025006Y0039519D01*
X0024987Y0039476D01*
X0024964Y0039435D01*
X0024939Y0039397D01*
X0024910Y0039360D01*
X0024878Y0039326D01*
X0024843Y0039295D01*
X0024806Y0039267D01*
X0024767Y0039242D01*
X0024725Y0039220D01*
X0024682Y0039202D01*
X0024638Y0039188D01*
X0024592Y0039177D01*
X0024546Y0039170D01*
X0024500Y0039167D01*
X0024453Y0039168D01*
X0024407Y0039173D01*
X0024361Y0039182D01*
X0024316Y0039194D01*
X0024272Y0039211D01*
X0024230Y0039230D01*
X0024190Y0039254D01*
X0024151Y0039280D01*
X0024115Y0039310D01*
X0024082Y0039343D01*
X0024051Y0039378D01*
X0024024Y0039416D01*
X0024000Y0039456D01*
X0023979Y0039497D01*
X0023962Y0039541D01*
X0023948Y0039585D01*
X0023939Y0039631D01*
X0023933Y0039677D01*
X0023931Y0039724D01*
X0025669Y0238543D02*
X0025669Y0239331D01*
X0034331Y0239331D01*
X0034331Y0238543D01*
X0034331Y0231457D02*
X0034331Y0230669D01*
X0025669Y0230669D01*
X0025669Y0231457D01*
X0023931Y0239724D02*
X0023933Y0239771D01*
X0023939Y0239817D01*
X0023948Y0239863D01*
X0023962Y0239907D01*
X0023979Y0239951D01*
X0024000Y0239992D01*
X0024024Y0240032D01*
X0024051Y0240070D01*
X0024082Y0240105D01*
X0024115Y0240138D01*
X0024151Y0240168D01*
X0024190Y0240194D01*
X0024230Y0240218D01*
X0024272Y0240237D01*
X0024316Y0240254D01*
X0024361Y0240266D01*
X0024407Y0240275D01*
X0024453Y0240280D01*
X0024500Y0240281D01*
X0024546Y0240278D01*
X0024592Y0240271D01*
X0024638Y0240260D01*
X0024682Y0240246D01*
X0024725Y0240228D01*
X0024766Y0240206D01*
X0024806Y0240181D01*
X0024843Y0240153D01*
X0024878Y0240122D01*
X0024910Y0240088D01*
X0024939Y0240051D01*
X0024964Y0240013D01*
X0024987Y0239972D01*
X0025006Y0239929D01*
X0025021Y0239885D01*
X0025033Y0239840D01*
X0025041Y0239794D01*
X0025045Y0239747D01*
X0025045Y0239701D01*
X0025041Y0239654D01*
X0025033Y0239608D01*
X0025021Y0239563D01*
X0025006Y0239519D01*
X0024987Y0239476D01*
X0024964Y0239435D01*
X0024939Y0239397D01*
X0024910Y0239360D01*
X0024878Y0239326D01*
X0024843Y0239295D01*
X0024806Y0239267D01*
X0024767Y0239242D01*
X0024725Y0239220D01*
X0024682Y0239202D01*
X0024638Y0239188D01*
X0024592Y0239177D01*
X0024546Y0239170D01*
X0024500Y0239167D01*
X0024453Y0239168D01*
X0024407Y0239173D01*
X0024361Y0239182D01*
X0024316Y0239194D01*
X0024272Y0239211D01*
X0024230Y0239230D01*
X0024190Y0239254D01*
X0024151Y0239280D01*
X0024115Y0239310D01*
X0024082Y0239343D01*
X0024051Y0239378D01*
X0024024Y0239416D01*
X0024000Y0239456D01*
X0023979Y0239497D01*
X0023962Y0239541D01*
X0023948Y0239585D01*
X0023939Y0239631D01*
X0023933Y0239677D01*
X0023931Y0239724D01*
X0025669Y0138543D02*
X0025669Y0139331D01*
X0034331Y0139331D01*
X0034331Y0138543D01*
X0034331Y0131457D02*
X0034331Y0130669D01*
X0025669Y0130669D01*
X0025669Y0131457D01*
X0023931Y0139724D02*
X0023933Y0139771D01*
X0023939Y0139817D01*
X0023948Y0139863D01*
X0023962Y0139907D01*
X0023979Y0139951D01*
X0024000Y0139992D01*
X0024024Y0140032D01*
X0024051Y0140070D01*
X0024082Y0140105D01*
X0024115Y0140138D01*
X0024151Y0140168D01*
X0024190Y0140194D01*
X0024230Y0140218D01*
X0024272Y0140237D01*
X0024316Y0140254D01*
X0024361Y0140266D01*
X0024407Y0140275D01*
X0024453Y0140280D01*
X0024500Y0140281D01*
X0024546Y0140278D01*
X0024592Y0140271D01*
X0024638Y0140260D01*
X0024682Y0140246D01*
X0024725Y0140228D01*
X0024766Y0140206D01*
X0024806Y0140181D01*
X0024843Y0140153D01*
X0024878Y0140122D01*
X0024910Y0140088D01*
X0024939Y0140051D01*
X0024964Y0140013D01*
X0024987Y0139972D01*
X0025006Y0139929D01*
X0025021Y0139885D01*
X0025033Y0139840D01*
X0025041Y0139794D01*
X0025045Y0139747D01*
X0025045Y0139701D01*
X0025041Y0139654D01*
X0025033Y0139608D01*
X0025021Y0139563D01*
X0025006Y0139519D01*
X0024987Y0139476D01*
X0024964Y0139435D01*
X0024939Y0139397D01*
X0024910Y0139360D01*
X0024878Y0139326D01*
X0024843Y0139295D01*
X0024806Y0139267D01*
X0024767Y0139242D01*
X0024725Y0139220D01*
X0024682Y0139202D01*
X0024638Y0139188D01*
X0024592Y0139177D01*
X0024546Y0139170D01*
X0024500Y0139167D01*
X0024453Y0139168D01*
X0024407Y0139173D01*
X0024361Y0139182D01*
X0024316Y0139194D01*
X0024272Y0139211D01*
X0024230Y0139230D01*
X0024190Y0139254D01*
X0024151Y0139280D01*
X0024115Y0139310D01*
X0024082Y0139343D01*
X0024051Y0139378D01*
X0024024Y0139416D01*
X0024000Y0139456D01*
X0023979Y0139497D01*
X0023962Y0139541D01*
X0023948Y0139585D01*
X0023939Y0139631D01*
X0023933Y0139677D01*
X0023931Y0139724D01*
X0025669Y0338543D02*
X0025669Y0339331D01*
X0034331Y0339331D01*
X0034331Y0338543D01*
X0034331Y0331457D02*
X0034331Y0330669D01*
X0025669Y0330669D01*
X0025669Y0331457D01*
X0023931Y0339724D02*
X0023933Y0339771D01*
X0023939Y0339817D01*
X0023948Y0339863D01*
X0023962Y0339907D01*
X0023979Y0339951D01*
X0024000Y0339992D01*
X0024024Y0340032D01*
X0024051Y0340070D01*
X0024082Y0340105D01*
X0024115Y0340138D01*
X0024151Y0340168D01*
X0024190Y0340194D01*
X0024230Y0340218D01*
X0024272Y0340237D01*
X0024316Y0340254D01*
X0024361Y0340266D01*
X0024407Y0340275D01*
X0024453Y0340280D01*
X0024500Y0340281D01*
X0024546Y0340278D01*
X0024592Y0340271D01*
X0024638Y0340260D01*
X0024682Y0340246D01*
X0024725Y0340228D01*
X0024766Y0340206D01*
X0024806Y0340181D01*
X0024843Y0340153D01*
X0024878Y0340122D01*
X0024910Y0340088D01*
X0024939Y0340051D01*
X0024964Y0340013D01*
X0024987Y0339972D01*
X0025006Y0339929D01*
X0025021Y0339885D01*
X0025033Y0339840D01*
X0025041Y0339794D01*
X0025045Y0339747D01*
X0025045Y0339701D01*
X0025041Y0339654D01*
X0025033Y0339608D01*
X0025021Y0339563D01*
X0025006Y0339519D01*
X0024987Y0339476D01*
X0024964Y0339435D01*
X0024939Y0339397D01*
X0024910Y0339360D01*
X0024878Y0339326D01*
X0024843Y0339295D01*
X0024806Y0339267D01*
X0024767Y0339242D01*
X0024725Y0339220D01*
X0024682Y0339202D01*
X0024638Y0339188D01*
X0024592Y0339177D01*
X0024546Y0339170D01*
X0024500Y0339167D01*
X0024453Y0339168D01*
X0024407Y0339173D01*
X0024361Y0339182D01*
X0024316Y0339194D01*
X0024272Y0339211D01*
X0024230Y0339230D01*
X0024190Y0339254D01*
X0024151Y0339280D01*
X0024115Y0339310D01*
X0024082Y0339343D01*
X0024051Y0339378D01*
X0024024Y0339416D01*
X0024000Y0339456D01*
X0023979Y0339497D01*
X0023962Y0339541D01*
X0023948Y0339585D01*
X0023939Y0339631D01*
X0023933Y0339677D01*
X0023931Y0339724D01*
X0087264Y0007760D02*
X0087264Y0005791D01*
X0082835Y0005791D01*
X0078898Y0005791D02*
X0074469Y0005791D01*
X0070531Y0005791D02*
X0066102Y0005791D01*
X0062165Y0005791D02*
X0057736Y0005791D01*
X0057736Y0007760D01*
X0087264Y0015240D02*
X0087264Y0016815D01*
X0057736Y0016815D02*
X0057736Y0015240D01*
X0078406Y0024689D02*
X0080571Y0024689D01*
X0066594Y0024689D02*
X0064429Y0024689D01*
X0131181Y0259252D02*
X0009134Y0259252D01*
X0009134Y0302559D01*
X0131181Y0302559D01*
X0131181Y0259252D01*
X0131181Y0059252D02*
X0009134Y0059252D01*
X0009134Y0102559D01*
X0131181Y0102559D01*
X0131181Y0059252D01*
X0131181Y0159252D02*
X0009134Y0159252D01*
X0009134Y0202559D01*
X0131181Y0202559D01*
X0131181Y0159252D01*
X0131181Y0359252D02*
X0009134Y0359252D01*
X0009134Y0402559D01*
X0131181Y0402559D01*
X0131181Y0359252D01*
D13*
X0016476Y0050659D03*
X0013524Y0050659D03*
X0013524Y0014341D03*
X0016476Y0014341D03*
X0016476Y0250659D03*
X0013524Y0250659D03*
X0013524Y0214341D03*
X0016476Y0214341D03*
X0016476Y0150659D03*
X0013524Y0150659D03*
X0013524Y0114341D03*
X0016476Y0114341D03*
X0016476Y0350659D03*
X0013524Y0350659D03*
X0013524Y0314341D03*
X0016476Y0314341D03*
D14*
X0015000Y0050659D03*
X0015000Y0014341D03*
X0015000Y0250659D03*
X0015000Y0214341D03*
X0015000Y0150659D03*
X0015000Y0114341D03*
X0015000Y0350659D03*
X0015000Y0314341D03*
D15*
X0052520Y0313346D02*
X0052520Y0306654D01*
X0058425Y0306654D01*
X0061575Y0306654D02*
X0067480Y0306654D01*
X0067480Y0313346D01*
X0061575Y0313346D01*
X0058425Y0313346D02*
X0052520Y0313346D01*
X0058426Y0313346D02*
X0058462Y0313273D01*
X0058503Y0313202D01*
X0058546Y0313132D01*
X0058593Y0313065D01*
X0058643Y0313000D01*
X0058696Y0312938D01*
X0058751Y0312878D01*
X0058810Y0312821D01*
X0058871Y0312766D01*
X0058935Y0312715D01*
X0059001Y0312666D01*
X0059069Y0312621D01*
X0059139Y0312579D01*
X0059211Y0312540D01*
X0059285Y0312504D01*
X0059360Y0312473D01*
X0059437Y0312444D01*
X0059515Y0312420D01*
X0059594Y0312399D01*
X0059674Y0312382D01*
X0059755Y0312368D01*
X0059836Y0312359D01*
X0059918Y0312353D01*
X0060000Y0312351D01*
X0060082Y0312353D01*
X0060164Y0312359D01*
X0060245Y0312368D01*
X0060326Y0312382D01*
X0060406Y0312399D01*
X0060485Y0312420D01*
X0060563Y0312444D01*
X0060640Y0312473D01*
X0060715Y0312504D01*
X0060789Y0312540D01*
X0060861Y0312579D01*
X0060931Y0312621D01*
X0060999Y0312666D01*
X0061065Y0312715D01*
X0061129Y0312766D01*
X0061190Y0312821D01*
X0061249Y0312878D01*
X0061304Y0312938D01*
X0061357Y0313000D01*
X0061407Y0313065D01*
X0061454Y0313132D01*
X0061497Y0313202D01*
X0061538Y0313273D01*
X0061574Y0313346D01*
X0061574Y0306654D02*
X0061538Y0306727D01*
X0061497Y0306798D01*
X0061454Y0306868D01*
X0061407Y0306935D01*
X0061357Y0307000D01*
X0061304Y0307062D01*
X0061249Y0307122D01*
X0061190Y0307179D01*
X0061129Y0307234D01*
X0061065Y0307285D01*
X0060999Y0307334D01*
X0060931Y0307379D01*
X0060861Y0307421D01*
X0060789Y0307460D01*
X0060715Y0307496D01*
X0060640Y0307527D01*
X0060563Y0307556D01*
X0060485Y0307580D01*
X0060406Y0307601D01*
X0060326Y0307618D01*
X0060245Y0307632D01*
X0060164Y0307641D01*
X0060082Y0307647D01*
X0060000Y0307649D01*
X0059918Y0307647D01*
X0059836Y0307641D01*
X0059755Y0307632D01*
X0059674Y0307618D01*
X0059594Y0307601D01*
X0059515Y0307580D01*
X0059437Y0307556D01*
X0059360Y0307527D01*
X0059285Y0307496D01*
X0059211Y0307460D01*
X0059139Y0307421D01*
X0059069Y0307379D01*
X0059001Y0307334D01*
X0058935Y0307285D01*
X0058871Y0307234D01*
X0058810Y0307179D01*
X0058751Y0307122D01*
X0058696Y0307062D01*
X0058643Y0307000D01*
X0058593Y0306935D01*
X0058546Y0306868D01*
X0058503Y0306798D01*
X0058462Y0306727D01*
X0058426Y0306654D01*
X0052520Y0113846D02*
X0052520Y0107154D01*
X0058425Y0107154D01*
X0061575Y0107154D02*
X0067480Y0107154D01*
X0067480Y0113846D01*
X0061575Y0113846D01*
X0058425Y0113846D02*
X0052520Y0113846D01*
X0058426Y0113846D02*
X0058462Y0113773D01*
X0058503Y0113702D01*
X0058546Y0113632D01*
X0058593Y0113565D01*
X0058643Y0113500D01*
X0058696Y0113438D01*
X0058751Y0113378D01*
X0058810Y0113321D01*
X0058871Y0113266D01*
X0058935Y0113215D01*
X0059001Y0113166D01*
X0059069Y0113121D01*
X0059139Y0113079D01*
X0059211Y0113040D01*
X0059285Y0113004D01*
X0059360Y0112973D01*
X0059437Y0112944D01*
X0059515Y0112920D01*
X0059594Y0112899D01*
X0059674Y0112882D01*
X0059755Y0112868D01*
X0059836Y0112859D01*
X0059918Y0112853D01*
X0060000Y0112851D01*
X0060082Y0112853D01*
X0060164Y0112859D01*
X0060245Y0112868D01*
X0060326Y0112882D01*
X0060406Y0112899D01*
X0060485Y0112920D01*
X0060563Y0112944D01*
X0060640Y0112973D01*
X0060715Y0113004D01*
X0060789Y0113040D01*
X0060861Y0113079D01*
X0060931Y0113121D01*
X0060999Y0113166D01*
X0061065Y0113215D01*
X0061129Y0113266D01*
X0061190Y0113321D01*
X0061249Y0113378D01*
X0061304Y0113438D01*
X0061357Y0113500D01*
X0061407Y0113565D01*
X0061454Y0113632D01*
X0061497Y0113702D01*
X0061538Y0113773D01*
X0061574Y0113846D01*
X0061574Y0107154D02*
X0061538Y0107227D01*
X0061497Y0107298D01*
X0061454Y0107368D01*
X0061407Y0107435D01*
X0061357Y0107500D01*
X0061304Y0107562D01*
X0061249Y0107622D01*
X0061190Y0107679D01*
X0061129Y0107734D01*
X0061065Y0107785D01*
X0060999Y0107834D01*
X0060931Y0107879D01*
X0060861Y0107921D01*
X0060789Y0107960D01*
X0060715Y0107996D01*
X0060640Y0108027D01*
X0060563Y0108056D01*
X0060485Y0108080D01*
X0060406Y0108101D01*
X0060326Y0108118D01*
X0060245Y0108132D01*
X0060164Y0108141D01*
X0060082Y0108147D01*
X0060000Y0108149D01*
X0059918Y0108147D01*
X0059836Y0108141D01*
X0059755Y0108132D01*
X0059674Y0108118D01*
X0059594Y0108101D01*
X0059515Y0108080D01*
X0059437Y0108056D01*
X0059360Y0108027D01*
X0059285Y0107996D01*
X0059211Y0107960D01*
X0059139Y0107921D01*
X0059069Y0107879D01*
X0059001Y0107834D01*
X0058935Y0107785D01*
X0058871Y0107734D01*
X0058810Y0107679D01*
X0058751Y0107622D01*
X0058696Y0107562D01*
X0058643Y0107500D01*
X0058593Y0107435D01*
X0058546Y0107368D01*
X0058503Y0107298D01*
X0058462Y0107227D01*
X0058426Y0107154D01*
X0052520Y0213846D02*
X0052520Y0207154D01*
X0058425Y0207154D01*
X0061575Y0207154D02*
X0067480Y0207154D01*
X0067480Y0213846D01*
X0061575Y0213846D01*
X0058425Y0213846D02*
X0052520Y0213846D01*
X0058426Y0213846D02*
X0058462Y0213773D01*
X0058503Y0213702D01*
X0058546Y0213632D01*
X0058593Y0213565D01*
X0058643Y0213500D01*
X0058696Y0213438D01*
X0058751Y0213378D01*
X0058810Y0213321D01*
X0058871Y0213266D01*
X0058935Y0213215D01*
X0059001Y0213166D01*
X0059069Y0213121D01*
X0059139Y0213079D01*
X0059211Y0213040D01*
X0059285Y0213004D01*
X0059360Y0212973D01*
X0059437Y0212944D01*
X0059515Y0212920D01*
X0059594Y0212899D01*
X0059674Y0212882D01*
X0059755Y0212868D01*
X0059836Y0212859D01*
X0059918Y0212853D01*
X0060000Y0212851D01*
X0060082Y0212853D01*
X0060164Y0212859D01*
X0060245Y0212868D01*
X0060326Y0212882D01*
X0060406Y0212899D01*
X0060485Y0212920D01*
X0060563Y0212944D01*
X0060640Y0212973D01*
X0060715Y0213004D01*
X0060789Y0213040D01*
X0060861Y0213079D01*
X0060931Y0213121D01*
X0060999Y0213166D01*
X0061065Y0213215D01*
X0061129Y0213266D01*
X0061190Y0213321D01*
X0061249Y0213378D01*
X0061304Y0213438D01*
X0061357Y0213500D01*
X0061407Y0213565D01*
X0061454Y0213632D01*
X0061497Y0213702D01*
X0061538Y0213773D01*
X0061574Y0213846D01*
X0061574Y0207154D02*
X0061538Y0207227D01*
X0061497Y0207298D01*
X0061454Y0207368D01*
X0061407Y0207435D01*
X0061357Y0207500D01*
X0061304Y0207562D01*
X0061249Y0207622D01*
X0061190Y0207679D01*
X0061129Y0207734D01*
X0061065Y0207785D01*
X0060999Y0207834D01*
X0060931Y0207879D01*
X0060861Y0207921D01*
X0060789Y0207960D01*
X0060715Y0207996D01*
X0060640Y0208027D01*
X0060563Y0208056D01*
X0060485Y0208080D01*
X0060406Y0208101D01*
X0060326Y0208118D01*
X0060245Y0208132D01*
X0060164Y0208141D01*
X0060082Y0208147D01*
X0060000Y0208149D01*
X0059918Y0208147D01*
X0059836Y0208141D01*
X0059755Y0208132D01*
X0059674Y0208118D01*
X0059594Y0208101D01*
X0059515Y0208080D01*
X0059437Y0208056D01*
X0059360Y0208027D01*
X0059285Y0207996D01*
X0059211Y0207960D01*
X0059139Y0207921D01*
X0059069Y0207879D01*
X0059001Y0207834D01*
X0058935Y0207785D01*
X0058871Y0207734D01*
X0058810Y0207679D01*
X0058751Y0207622D01*
X0058696Y0207562D01*
X0058643Y0207500D01*
X0058593Y0207435D01*
X0058546Y0207368D01*
X0058503Y0207298D01*
X0058462Y0207227D01*
X0058426Y0207154D01*
X0052020Y0412846D02*
X0052020Y0406154D01*
X0057925Y0406154D01*
X0061075Y0406154D02*
X0066980Y0406154D01*
X0066980Y0412846D01*
X0061075Y0412846D01*
X0057925Y0412846D02*
X0052020Y0412846D01*
X0057926Y0412846D02*
X0057962Y0412773D01*
X0058003Y0412702D01*
X0058046Y0412632D01*
X0058093Y0412565D01*
X0058143Y0412500D01*
X0058196Y0412438D01*
X0058251Y0412378D01*
X0058310Y0412321D01*
X0058371Y0412266D01*
X0058435Y0412215D01*
X0058501Y0412166D01*
X0058569Y0412121D01*
X0058639Y0412079D01*
X0058711Y0412040D01*
X0058785Y0412004D01*
X0058860Y0411973D01*
X0058937Y0411944D01*
X0059015Y0411920D01*
X0059094Y0411899D01*
X0059174Y0411882D01*
X0059255Y0411868D01*
X0059336Y0411859D01*
X0059418Y0411853D01*
X0059500Y0411851D01*
X0059582Y0411853D01*
X0059664Y0411859D01*
X0059745Y0411868D01*
X0059826Y0411882D01*
X0059906Y0411899D01*
X0059985Y0411920D01*
X0060063Y0411944D01*
X0060140Y0411973D01*
X0060215Y0412004D01*
X0060289Y0412040D01*
X0060361Y0412079D01*
X0060431Y0412121D01*
X0060499Y0412166D01*
X0060565Y0412215D01*
X0060629Y0412266D01*
X0060690Y0412321D01*
X0060749Y0412378D01*
X0060804Y0412438D01*
X0060857Y0412500D01*
X0060907Y0412565D01*
X0060954Y0412632D01*
X0060997Y0412702D01*
X0061038Y0412773D01*
X0061074Y0412846D01*
X0061074Y0406154D02*
X0061038Y0406227D01*
X0060997Y0406298D01*
X0060954Y0406368D01*
X0060907Y0406435D01*
X0060857Y0406500D01*
X0060804Y0406562D01*
X0060749Y0406622D01*
X0060690Y0406679D01*
X0060629Y0406734D01*
X0060565Y0406785D01*
X0060499Y0406834D01*
X0060431Y0406879D01*
X0060361Y0406921D01*
X0060289Y0406960D01*
X0060215Y0406996D01*
X0060140Y0407027D01*
X0060063Y0407056D01*
X0059985Y0407080D01*
X0059906Y0407101D01*
X0059826Y0407118D01*
X0059745Y0407132D01*
X0059664Y0407141D01*
X0059582Y0407147D01*
X0059500Y0407149D01*
X0059418Y0407147D01*
X0059336Y0407141D01*
X0059255Y0407132D01*
X0059174Y0407118D01*
X0059094Y0407101D01*
X0059015Y0407080D01*
X0058937Y0407056D01*
X0058860Y0407027D01*
X0058785Y0406996D01*
X0058711Y0406960D01*
X0058639Y0406921D01*
X0058569Y0406879D01*
X0058501Y0406834D01*
X0058435Y0406785D01*
X0058371Y0406734D01*
X0058310Y0406679D01*
X0058251Y0406622D01*
X0058196Y0406562D01*
X0058143Y0406500D01*
X0058093Y0406435D01*
X0058046Y0406368D01*
X0058003Y0406298D01*
X0057962Y0406227D01*
X0057926Y0406154D01*
D16*
X0053526Y0311504D02*
X0053159Y0311871D01*
X0054260Y0311871D01*
X0054260Y0311504D02*
X0054260Y0312238D01*
X0053526Y0112004D02*
X0053159Y0112371D01*
X0054260Y0112371D01*
X0054260Y0112004D02*
X0054260Y0112738D01*
X0053526Y0212004D02*
X0053159Y0212371D01*
X0054260Y0212371D01*
X0054260Y0212004D02*
X0054260Y0212738D01*
X0053026Y0411004D02*
X0052659Y0411371D01*
X0053760Y0411371D01*
X0053760Y0411004D02*
X0053760Y0411738D01*
M02*
