G75*
%MOIN*%
%OFA0B0*%
%FSLAX25Y25*%
%IPPOS*%
%LPD*%
%AMOC8*
5,1,8,0,0,1.08239X$1,22.5*
%
%ADD10R,0.06706X0.05918*%
%ADD11R,0.04343X0.03556*%
%ADD12C,0.00794*%
%ADD13C,0.00434*%
%ADD14R,0.03950X0.03950*%
%ADD15R,0.03556X0.04343*%
%ADD16R,0.09068X0.08674*%
%ADD17R,0.07099X0.08280*%
%ADD18R,0.02375X0.06115*%
%ADD19C,0.05543*%
%ADD20C,0.06343*%
%ADD21C,0.14383*%
%ADD22C,0.07500*%
%ADD23C,0.08300*%
%ADD24R,0.10643X0.09461*%
%ADD25R,0.02769X0.08674*%
%ADD26R,0.05918X0.06706*%
%ADD27R,0.03962X0.03962*%
%ADD28R,0.04762X0.04762*%
D10*
X0050500Y0050740D03*
X0050500Y0043260D03*
X0041000Y0050740D03*
X0041000Y0043260D03*
X0050000Y0253740D03*
X0050000Y0246260D03*
X0040000Y0253740D03*
X0040000Y0246260D03*
X0050500Y0153740D03*
X0050500Y0146260D03*
X0039500Y0153740D03*
X0039500Y0146260D03*
X0050000Y0353740D03*
X0050000Y0346260D03*
X0040000Y0353740D03*
X0040000Y0346260D03*
D11*
X0035000Y0017441D03*
X0035000Y0022559D03*
X0015000Y0022441D03*
X0015000Y0027559D03*
X0015000Y0042559D03*
X0015000Y0037441D03*
X0040000Y0017441D03*
X0040000Y0022559D03*
X0045000Y0017441D03*
X0045000Y0022559D03*
X0035000Y0217441D03*
X0035000Y0222559D03*
X0015000Y0222441D03*
X0015000Y0227559D03*
X0015000Y0242559D03*
X0015000Y0237441D03*
X0040000Y0217441D03*
X0040000Y0222559D03*
X0045000Y0217441D03*
X0045000Y0222559D03*
X0035000Y0117441D03*
X0035000Y0122559D03*
X0015000Y0122441D03*
X0015000Y0127559D03*
X0015000Y0142559D03*
X0015000Y0137441D03*
X0040000Y0117441D03*
X0040000Y0122559D03*
X0045000Y0117441D03*
X0045000Y0122559D03*
X0035000Y0317441D03*
X0035000Y0322559D03*
X0015000Y0322441D03*
X0015000Y0327559D03*
X0015000Y0342559D03*
X0015000Y0337441D03*
X0040000Y0317441D03*
X0040000Y0322559D03*
X0045000Y0317441D03*
X0045000Y0322559D03*
D12*
X0027247Y0037754D02*
X0024879Y0037754D01*
X0024879Y0038546D01*
X0027247Y0038546D01*
X0027247Y0037754D01*
X0027247Y0036179D02*
X0024879Y0036179D01*
X0024879Y0036971D01*
X0027247Y0036971D01*
X0027247Y0036179D01*
X0027247Y0034604D02*
X0024879Y0034604D01*
X0024879Y0035396D01*
X0027247Y0035396D01*
X0027247Y0034604D01*
X0027247Y0033029D02*
X0024879Y0033029D01*
X0024879Y0033821D01*
X0027247Y0033821D01*
X0027247Y0033029D01*
X0027247Y0031454D02*
X0024879Y0031454D01*
X0024879Y0032246D01*
X0027247Y0032246D01*
X0027247Y0031454D01*
X0035121Y0031454D02*
X0032753Y0031454D01*
X0032753Y0032246D01*
X0035121Y0032246D01*
X0035121Y0031454D01*
X0035121Y0033029D02*
X0032753Y0033029D01*
X0032753Y0033821D01*
X0035121Y0033821D01*
X0035121Y0033029D01*
X0035121Y0034604D02*
X0032753Y0034604D01*
X0032753Y0035396D01*
X0035121Y0035396D01*
X0035121Y0034604D01*
X0035121Y0036179D02*
X0032753Y0036179D01*
X0032753Y0036971D01*
X0035121Y0036971D01*
X0035121Y0036179D01*
X0035121Y0037754D02*
X0032753Y0037754D01*
X0032753Y0038546D01*
X0035121Y0038546D01*
X0035121Y0037754D01*
X0027247Y0237754D02*
X0024879Y0237754D01*
X0024879Y0238546D01*
X0027247Y0238546D01*
X0027247Y0237754D01*
X0027247Y0236179D02*
X0024879Y0236179D01*
X0024879Y0236971D01*
X0027247Y0236971D01*
X0027247Y0236179D01*
X0027247Y0234604D02*
X0024879Y0234604D01*
X0024879Y0235396D01*
X0027247Y0235396D01*
X0027247Y0234604D01*
X0027247Y0233029D02*
X0024879Y0233029D01*
X0024879Y0233821D01*
X0027247Y0233821D01*
X0027247Y0233029D01*
X0027247Y0231454D02*
X0024879Y0231454D01*
X0024879Y0232246D01*
X0027247Y0232246D01*
X0027247Y0231454D01*
X0035121Y0231454D02*
X0032753Y0231454D01*
X0032753Y0232246D01*
X0035121Y0232246D01*
X0035121Y0231454D01*
X0035121Y0233029D02*
X0032753Y0233029D01*
X0032753Y0233821D01*
X0035121Y0233821D01*
X0035121Y0233029D01*
X0035121Y0234604D02*
X0032753Y0234604D01*
X0032753Y0235396D01*
X0035121Y0235396D01*
X0035121Y0234604D01*
X0035121Y0236179D02*
X0032753Y0236179D01*
X0032753Y0236971D01*
X0035121Y0236971D01*
X0035121Y0236179D01*
X0035121Y0237754D02*
X0032753Y0237754D01*
X0032753Y0238546D01*
X0035121Y0238546D01*
X0035121Y0237754D01*
X0027247Y0137754D02*
X0024879Y0137754D01*
X0024879Y0138546D01*
X0027247Y0138546D01*
X0027247Y0137754D01*
X0027247Y0136179D02*
X0024879Y0136179D01*
X0024879Y0136971D01*
X0027247Y0136971D01*
X0027247Y0136179D01*
X0027247Y0134604D02*
X0024879Y0134604D01*
X0024879Y0135396D01*
X0027247Y0135396D01*
X0027247Y0134604D01*
X0027247Y0133029D02*
X0024879Y0133029D01*
X0024879Y0133821D01*
X0027247Y0133821D01*
X0027247Y0133029D01*
X0027247Y0131454D02*
X0024879Y0131454D01*
X0024879Y0132246D01*
X0027247Y0132246D01*
X0027247Y0131454D01*
X0035121Y0131454D02*
X0032753Y0131454D01*
X0032753Y0132246D01*
X0035121Y0132246D01*
X0035121Y0131454D01*
X0035121Y0133029D02*
X0032753Y0133029D01*
X0032753Y0133821D01*
X0035121Y0133821D01*
X0035121Y0133029D01*
X0035121Y0134604D02*
X0032753Y0134604D01*
X0032753Y0135396D01*
X0035121Y0135396D01*
X0035121Y0134604D01*
X0035121Y0136179D02*
X0032753Y0136179D01*
X0032753Y0136971D01*
X0035121Y0136971D01*
X0035121Y0136179D01*
X0035121Y0137754D02*
X0032753Y0137754D01*
X0032753Y0138546D01*
X0035121Y0138546D01*
X0035121Y0137754D01*
X0027247Y0337754D02*
X0024879Y0337754D01*
X0024879Y0338546D01*
X0027247Y0338546D01*
X0027247Y0337754D01*
X0027247Y0336179D02*
X0024879Y0336179D01*
X0024879Y0336971D01*
X0027247Y0336971D01*
X0027247Y0336179D01*
X0027247Y0334604D02*
X0024879Y0334604D01*
X0024879Y0335396D01*
X0027247Y0335396D01*
X0027247Y0334604D01*
X0027247Y0333029D02*
X0024879Y0333029D01*
X0024879Y0333821D01*
X0027247Y0333821D01*
X0027247Y0333029D01*
X0027247Y0331454D02*
X0024879Y0331454D01*
X0024879Y0332246D01*
X0027247Y0332246D01*
X0027247Y0331454D01*
X0035121Y0331454D02*
X0032753Y0331454D01*
X0032753Y0332246D01*
X0035121Y0332246D01*
X0035121Y0331454D01*
X0035121Y0333029D02*
X0032753Y0333029D01*
X0032753Y0333821D01*
X0035121Y0333821D01*
X0035121Y0333029D01*
X0035121Y0334604D02*
X0032753Y0334604D01*
X0032753Y0335396D01*
X0035121Y0335396D01*
X0035121Y0334604D01*
X0035121Y0336179D02*
X0032753Y0336179D01*
X0032753Y0336971D01*
X0035121Y0336971D01*
X0035121Y0336179D01*
X0035121Y0337754D02*
X0032753Y0337754D01*
X0032753Y0338546D01*
X0035121Y0338546D01*
X0035121Y0337754D01*
D13*
X0031954Y0038529D02*
X0031954Y0031471D01*
X0028046Y0031471D01*
X0028046Y0038529D01*
X0031954Y0038529D01*
X0031954Y0031904D02*
X0028046Y0031904D01*
X0028046Y0032337D02*
X0031954Y0032337D01*
X0031954Y0032770D02*
X0028046Y0032770D01*
X0028046Y0033203D02*
X0031954Y0033203D01*
X0031954Y0033636D02*
X0028046Y0033636D01*
X0028046Y0034069D02*
X0031954Y0034069D01*
X0031954Y0034502D02*
X0028046Y0034502D01*
X0028046Y0034935D02*
X0031954Y0034935D01*
X0031954Y0035368D02*
X0028046Y0035368D01*
X0028046Y0035801D02*
X0031954Y0035801D01*
X0031954Y0036234D02*
X0028046Y0036234D01*
X0028046Y0036667D02*
X0031954Y0036667D01*
X0031954Y0037100D02*
X0028046Y0037100D01*
X0028046Y0037533D02*
X0031954Y0037533D01*
X0031954Y0037966D02*
X0028046Y0037966D01*
X0028046Y0038399D02*
X0031954Y0038399D01*
X0031954Y0238529D02*
X0031954Y0231471D01*
X0028046Y0231471D01*
X0028046Y0238529D01*
X0031954Y0238529D01*
X0031954Y0231904D02*
X0028046Y0231904D01*
X0028046Y0232337D02*
X0031954Y0232337D01*
X0031954Y0232770D02*
X0028046Y0232770D01*
X0028046Y0233203D02*
X0031954Y0233203D01*
X0031954Y0233636D02*
X0028046Y0233636D01*
X0028046Y0234069D02*
X0031954Y0234069D01*
X0031954Y0234502D02*
X0028046Y0234502D01*
X0028046Y0234935D02*
X0031954Y0234935D01*
X0031954Y0235368D02*
X0028046Y0235368D01*
X0028046Y0235801D02*
X0031954Y0235801D01*
X0031954Y0236234D02*
X0028046Y0236234D01*
X0028046Y0236667D02*
X0031954Y0236667D01*
X0031954Y0237100D02*
X0028046Y0237100D01*
X0028046Y0237533D02*
X0031954Y0237533D01*
X0031954Y0237966D02*
X0028046Y0237966D01*
X0028046Y0238399D02*
X0031954Y0238399D01*
X0031954Y0138529D02*
X0031954Y0131471D01*
X0028046Y0131471D01*
X0028046Y0138529D01*
X0031954Y0138529D01*
X0031954Y0131904D02*
X0028046Y0131904D01*
X0028046Y0132337D02*
X0031954Y0132337D01*
X0031954Y0132770D02*
X0028046Y0132770D01*
X0028046Y0133203D02*
X0031954Y0133203D01*
X0031954Y0133636D02*
X0028046Y0133636D01*
X0028046Y0134069D02*
X0031954Y0134069D01*
X0031954Y0134502D02*
X0028046Y0134502D01*
X0028046Y0134935D02*
X0031954Y0134935D01*
X0031954Y0135368D02*
X0028046Y0135368D01*
X0028046Y0135801D02*
X0031954Y0135801D01*
X0031954Y0136234D02*
X0028046Y0136234D01*
X0028046Y0136667D02*
X0031954Y0136667D01*
X0031954Y0137100D02*
X0028046Y0137100D01*
X0028046Y0137533D02*
X0031954Y0137533D01*
X0031954Y0137966D02*
X0028046Y0137966D01*
X0028046Y0138399D02*
X0031954Y0138399D01*
X0031954Y0338529D02*
X0031954Y0331471D01*
X0028046Y0331471D01*
X0028046Y0338529D01*
X0031954Y0338529D01*
X0031954Y0331904D02*
X0028046Y0331904D01*
X0028046Y0332337D02*
X0031954Y0332337D01*
X0031954Y0332770D02*
X0028046Y0332770D01*
X0028046Y0333203D02*
X0031954Y0333203D01*
X0031954Y0333636D02*
X0028046Y0333636D01*
X0028046Y0334069D02*
X0031954Y0334069D01*
X0031954Y0334502D02*
X0028046Y0334502D01*
X0028046Y0334935D02*
X0031954Y0334935D01*
X0031954Y0335368D02*
X0028046Y0335368D01*
X0028046Y0335801D02*
X0031954Y0335801D01*
X0031954Y0336234D02*
X0028046Y0336234D01*
X0028046Y0336667D02*
X0031954Y0336667D01*
X0031954Y0337100D02*
X0028046Y0337100D01*
X0028046Y0337533D02*
X0031954Y0337533D01*
X0031954Y0337966D02*
X0028046Y0337966D01*
X0028046Y0338399D02*
X0031954Y0338399D01*
D14*
X0015000Y0048297D03*
X0015000Y0054203D03*
X0015000Y0016703D03*
X0015000Y0010797D03*
X0015000Y0248297D03*
X0015000Y0254203D03*
X0015000Y0216703D03*
X0015000Y0210797D03*
X0015000Y0148297D03*
X0015000Y0154203D03*
X0015000Y0116703D03*
X0015000Y0110797D03*
X0015000Y0348297D03*
X0015000Y0354203D03*
X0015000Y0316703D03*
X0015000Y0310797D03*
D15*
X0064941Y0051000D03*
X0070059Y0051000D03*
X0070059Y0056000D03*
X0064941Y0056000D03*
X0067441Y0248500D03*
X0072559Y0248500D03*
X0072559Y0255000D03*
X0067441Y0255000D03*
X0062441Y0151000D03*
X0067559Y0151000D03*
X0067559Y0155500D03*
X0062441Y0155500D03*
X0068441Y0350000D03*
X0073559Y0350000D03*
X0073559Y0355500D03*
X0068441Y0355500D03*
D16*
X0060295Y0020752D03*
X0084705Y0020752D03*
D17*
X0056358Y0011500D03*
X0088642Y0011500D03*
D18*
X0067382Y0022031D03*
X0069941Y0022031D03*
X0072500Y0022031D03*
X0075059Y0022031D03*
X0077618Y0022031D03*
D19*
X0056063Y0310000D03*
X0063937Y0310000D03*
X0056063Y0110500D03*
X0063937Y0110500D03*
X0056063Y0210500D03*
X0063937Y0210500D03*
X0055563Y0409500D03*
X0063437Y0409500D03*
D20*
X0056063Y0310000D03*
X0063937Y0310000D03*
X0056063Y0110500D03*
X0063937Y0110500D03*
X0056063Y0210500D03*
X0063937Y0210500D03*
X0055563Y0409500D03*
X0063437Y0409500D03*
D21*
X0120551Y0275000D03*
X0039449Y0275000D03*
X0120551Y0075000D03*
X0039449Y0075000D03*
X0120551Y0175000D03*
X0039449Y0175000D03*
X0120551Y0375000D03*
X0039449Y0375000D03*
D22*
X0080000Y0293504D03*
X0018071Y0274213D03*
X0080000Y0093504D03*
X0018071Y0074213D03*
X0080000Y0193504D03*
X0018071Y0174213D03*
X0080000Y0393504D03*
X0018071Y0374213D03*
D23*
X0080000Y0293504D03*
X0018071Y0274213D03*
X0080000Y0093504D03*
X0018071Y0074213D03*
X0080000Y0193504D03*
X0018071Y0174213D03*
X0080000Y0393504D03*
X0018071Y0374213D03*
D24*
X0103965Y0033374D03*
X0137035Y0033374D03*
X0103965Y0012508D03*
X0137035Y0012508D03*
D25*
X0114201Y0034358D03*
X0117350Y0034358D03*
X0120500Y0034358D03*
X0123650Y0034358D03*
X0126799Y0034358D03*
D26*
X0085240Y0037000D03*
X0077760Y0037000D03*
D27*
X0026000Y0017500D03*
X0026500Y0117500D03*
X0026500Y0217500D03*
X0026500Y0317000D03*
X0071000Y0031000D03*
X0132000Y0043000D03*
X0034500Y0048500D03*
X0067500Y0162000D03*
X0070000Y0062500D03*
X0072500Y0262500D03*
X0031000Y0148000D03*
X0033000Y0248500D03*
X0073500Y0362500D03*
X0032500Y0350000D03*
D28*
X0026000Y0017500D03*
X0026500Y0117500D03*
X0026500Y0217500D03*
X0026500Y0317000D03*
X0071000Y0031000D03*
X0132000Y0043000D03*
X0034500Y0048500D03*
X0067500Y0162000D03*
X0070000Y0062500D03*
X0072500Y0262500D03*
X0031000Y0148000D03*
X0033000Y0248500D03*
X0073500Y0362500D03*
X0032500Y0350000D03*
M02*
